<svg width="100" height="100" viewBox="0 0 100 100" fill="none" xmlns="http://www.w3.org/2000/svg">
<path fill-rule="evenodd" clip-rule="evenodd" d="M20.2317 23.4225C19.6466 27.1729 16.7221 31.8664 13.6125 34.0394C10.7259 36.0628 8.76052 39.1493 8.14838 42.6209C7.53624 46.0926 8.32738 49.6652 10.3479 52.5538C12.4992 55.6139 13.6243 60.4629 13.0487 64.1591C12.5429 67.431 13.2469 70.8959 15.296 73.816C17.1848 76.5194 20.0139 78.4213 23.2303 79.1499C27.0905 80.0336 31.7924 83.1981 34.0636 86.4418C36.087 89.327 39.1727 91.2911 42.6431 91.9031C46.1136 92.515 49.685 91.7246 52.5731 89.7055C55.8168 87.4343 61.3175 86.0687 65.2471 86.5586C68.5187 86.974 71.8277 86.1544 74.5272 84.2601C77.3401 82.2934 79.2801 79.3119 79.9386 75.9434C80.6602 72.2831 83.346 68.1365 86.4093 65.9959C89.3052 63.975 91.2796 60.8865 91.8984 57.4099C92.5171 53.9332 91.7295 50.3531 89.7086 47.4572C87.5338 44.3575 86.387 38.941 87.1239 35.2225C87.4717 33.4668 87.4602 31.6588 87.0901 29.9077C86.72 28.1566 85.9989 26.4986 84.9704 25.0338C83.9057 23.5089 82.5319 22.2253 80.9384 21.2664C79.3448 20.3075 77.5673 19.6948 75.7214 19.4681C72.1744 19.0255 68.0382 16.5395 65.9909 13.6094C63.9676 10.7228 60.881 8.75744 57.4094 8.1453C53.9378 7.53316 50.3651 8.32429 47.4765 10.3449C44.5563 12.3939 39.8136 13.3194 36.3291 12.5222C34.5176 12.1047 32.6386 12.073 30.8141 12.4292C28.9896 12.7854 27.2605 13.5215 25.7392 14.5897C24.2724 15.6139 23.0283 16.9246 22.0817 18.4426C21.1352 19.9607 20.5059 21.6547 20.2317 23.4225ZM67.908 36.0228C68.4182 36.4364 68.842 36.9464 69.1551 37.5238C69.4682 38.1012 69.6644 38.7346 69.7327 39.3879C69.8009 40.0411 69.7397 40.7014 69.5527 41.331C69.3657 41.9606 69.0564 42.5472 68.6426 43.0573L50.6873 65.1856C50.2164 65.7914 49.6125 66.2808 48.9221 66.6158C47.9189 67.1026 46.7818 67.2401 45.6915 67.0065C44.6012 66.7728 43.6202 66.1814 42.9046 65.3263L31.2354 52.0634C30.8017 51.5702 30.4693 50.9964 30.2573 50.3748C30.0453 49.7531 29.9578 49.0958 29.9998 48.4404C30.0419 47.7849 30.2126 47.1441 30.5022 46.5547C30.7919 45.9652 31.1948 45.4385 31.688 45.0048C32.1812 44.571 32.755 44.2386 33.3767 44.0266C33.9983 43.8146 34.6556 43.7272 35.3111 43.7692C35.9665 43.8112 36.6073 43.9819 37.1968 44.2716C37.7862 44.5612 38.3129 44.9642 38.7467 45.4574L46.5833 54.3686L60.8744 36.7526C61.2883 36.2428 61.7986 35.8196 62.376 35.507C62.9535 35.1944 63.5869 34.9987 64.2401 34.9309C64.8932 34.8632 65.5533 34.9247 66.1826 35.1121C66.812 35.2994 67.3982 35.6089 67.908 36.0228Z" fill="black"/>
<path fill-rule="evenodd" clip-rule="evenodd" d="M20.2317 23.4225C19.6466 27.1729 16.7221 31.8664 13.6125 34.0394C10.7259 36.0628 8.76052 39.1493 8.14838 42.6209C7.53624 46.0926 8.32738 49.6652 10.3479 52.5538C12.4992 55.6139 13.6243 60.4629 13.0487 64.1591C12.5429 67.431 13.2469 70.8959 15.296 73.816C17.1848 76.5194 20.0139 78.4213 23.2303 79.1499C27.0905 80.0336 31.7924 83.1981 34.0636 86.4418C36.087 89.327 39.1727 91.2911 42.6431 91.9031C46.1136 92.515 49.685 91.7246 52.5731 89.7055C55.8168 87.4343 61.3175 86.0687 65.2471 86.5586C68.5187 86.974 71.8277 86.1544 74.5272 84.2601C77.3401 82.2934 79.2801 79.3119 79.9386 75.9434C80.6602 72.2831 83.346 68.1365 86.4093 65.9959C89.3052 63.975 91.2796 60.8865 91.8984 57.4099C92.5171 53.9332 91.7295 50.3531 89.7086 47.4572C87.5338 44.3575 86.387 38.941 87.1239 35.2225C87.4717 33.4668 87.4602 31.6588 87.0901 29.9077C86.72 28.1566 85.9989 26.4986 84.9704 25.0338C83.9057 23.5089 82.5319 22.2253 80.9384 21.2664C79.3448 20.3075 77.5673 19.6948 75.7214 19.4681C72.1744 19.0255 68.0382 16.5395 65.9909 13.6094C63.9676 10.7228 60.881 8.75744 57.4094 8.1453C53.9378 7.53316 50.3651 8.32429 47.4765 10.3449C44.5563 12.3939 39.8136 13.3194 36.3291 12.5222C34.5176 12.1047 32.6386 12.073 30.8141 12.4292C28.9896 12.7854 27.2605 13.5215 25.7392 14.5897C24.2724 15.6139 23.0283 16.9246 22.0817 18.4426C21.1352 19.9607 20.5059 21.6547 20.2317 23.4225ZM67.908 36.0228C68.4182 36.4364 68.842 36.9464 69.1551 37.5238C69.4682 38.1012 69.6644 38.7346 69.7327 39.3879C69.8009 40.0411 69.7397 40.7014 69.5527 41.331C69.3657 41.9606 69.0564 42.5472 68.6426 43.0573L50.6873 65.1856C50.2164 65.7914 49.6125 66.2808 48.9221 66.6158C47.9189 67.1026 46.7818 67.2401 45.6915 67.0065C44.6012 66.7728 43.6202 66.1814 42.9046 65.3263L31.2354 52.0634C30.8017 51.5702 30.4693 50.9964 30.2573 50.3748C30.0453 49.7531 29.9578 49.0958 29.9998 48.4404C30.0419 47.7849 30.2126 47.1441 30.5022 46.5547C30.7919 45.9652 31.1948 45.4385 31.688 45.0048C32.1812 44.571 32.755 44.2386 33.3767 44.0266C33.9983 43.8146 34.6556 43.7272 35.3111 43.7692C35.9665 43.8112 36.6073 43.9819 37.1968 44.2716C37.7862 44.5612 38.3129 44.9642 38.7467 45.4574L46.5833 54.3686L60.8744 36.7526C61.2883 36.2428 61.7986 35.8196 62.376 35.507C62.9535 35.1944 63.5869 34.9987 64.2401 34.9309C64.8932 34.8632 65.5533 34.9247 66.1826 35.1121C66.812 35.2994 67.3982 35.6089 67.908 36.0228Z" fill="#0E5C36"/>
</svg>
