<svg width="28" height="28" viewBox="0 0 28 28" fill="none" xmlns="http://www.w3.org/2000/svg">
<path d="M13.5039 0.0909176C12.5198 0.298706 11.5521 1.05877 11.1038 1.97194C10.7211 2.75934 10.7156 2.78121 10.7156 6.54872V9.90065H9.93928C7.9547 9.90065 6.4567 10.4857 5.18832 11.7543C4.43932 12.5035 3.88714 13.4221 3.60285 14.3954C3.52631 14.6469 3.44977 14.8219 3.40603 14.8219C3.35136 14.8219 3.33496 14.3298 3.33496 12.2902V9.76395L3.62472 9.62725C3.97462 9.46321 4.52133 8.92734 4.69628 8.57191C5.18286 7.56578 5.01338 6.48857 4.23704 5.7121C3.27482 4.74426 1.76589 4.74426 0.787269 5.71757C-0.158547 6.65808 -0.185883 8.11259 0.727131 9.11325C0.880211 9.28276 1.12623 9.46868 1.33945 9.57804L1.69482 9.76395V12.3449V14.9258L1.38319 15.0789C0.995021 15.2648 0.448306 15.7952 0.278825 16.1507C0.0164014 16.692 0 16.8615 0 18.8792C0 20.0877 0.0218686 20.8806 0.0601386 21.0665C0.164014 21.5367 0.3827 21.9304 0.738065 22.2859C1.29025 22.8381 1.81509 23.024 2.85932 23.024H3.47164L3.59738 23.467C4.13316 25.3917 5.69677 27.0212 7.64307 27.6719C8.61076 27.9945 8.6873 28 13.9959 28C19.3045 28 19.381 27.9945 20.3487 27.6719C21.3055 27.3493 22.0873 26.8626 22.8035 26.1463C23.5689 25.3753 24.1265 24.4403 24.3944 23.467L24.5202 23.024H25.1325C25.8432 23.024 26.2095 22.9584 26.6195 22.7561C27.2537 22.4499 27.784 21.7664 27.9317 21.0665C28.0137 20.6728 28.0137 17.1677 27.9317 16.7795C27.8278 16.3092 27.6091 15.9155 27.2537 15.5601C26.7016 15.0024 26.1767 14.8219 25.1325 14.8219H24.5147L24.389 14.4009C24.3233 14.1658 24.1812 13.7994 24.0828 13.5807L23.8969 13.1815H24.3452C24.963 13.1815 25.4769 13.0612 26.0236 12.7933C26.9476 12.3394 27.702 11.3716 27.9098 10.3654C28.0301 9.80223 28.0301 3.3827 27.9098 2.81949C27.6364 1.50715 26.4883 0.358854 25.1762 0.0854492C24.624 -0.0293789 14.0451 -0.0293789 13.5039 0.0909176ZM25.209 1.81336C25.6409 2.01568 25.9362 2.30549 26.1439 2.72653L26.3243 3.09289V6.59247V10.092L26.1439 10.4584C25.9362 10.8794 25.6409 11.1692 25.209 11.3716L24.9029 11.5137L19.7091 11.5411L14.5153 11.5684L13.4656 12.0988C12.8861 12.3941 12.3995 12.6347 12.3831 12.6347C12.3667 12.6347 12.3612 10.4857 12.3667 7.86106L12.3831 3.09289L12.5252 2.79215C12.7767 2.25081 13.1813 1.90085 13.7389 1.72041C13.9248 1.66573 15.0237 1.65479 19.4357 1.66026L24.9029 1.67119L25.209 1.81336ZM2.89759 6.72917C3.14361 6.85493 3.33496 7.16661 3.33496 7.44549C3.33496 7.85012 2.91946 8.26023 2.50942 8.26023C2.25793 8.26023 1.91897 8.04697 1.79869 7.81185C1.59641 7.41815 1.72215 6.98617 2.11032 6.75104C2.37274 6.59247 2.6133 6.587 2.89759 6.72917ZM10.7156 12.8698C10.7156 14.3735 10.7375 14.472 11.1311 14.6962C11.5138 14.9204 11.6013 14.893 13.389 14.0017L15.0401 13.1815H18.479H21.9233L22.1146 13.4385C22.4098 13.8431 22.6668 14.3681 22.8363 14.9039L22.9894 15.3961V18.9503V22.5046L22.8363 22.9858C22.3388 24.5879 21.2453 25.6815 19.6435 26.1791L19.1624 26.3322H13.9959H8.82944L8.34834 26.1791C6.74646 25.6815 5.65303 24.5879 5.15552 22.9858L5.00244 22.5046V18.9503V15.3961L5.15552 14.9149C5.6421 13.3565 6.76286 12.2082 8.23899 11.7598C8.80758 11.5903 9.07 11.552 9.93928 11.5465L10.7156 11.5411V12.8698ZM3.33496 18.923V21.3836H2.81011C2.18686 21.3836 1.9135 21.2688 1.74402 20.9352C1.64561 20.7493 1.64014 20.5962 1.64014 18.9121C1.64561 16.8615 1.65108 16.8396 2.05565 16.5936C2.24153 16.4788 2.33994 16.4624 2.80465 16.4624H3.33496V18.923ZM25.9143 16.5717C26.0564 16.6428 26.1712 16.7576 26.2423 16.8998C26.3462 17.1021 26.3517 17.2169 26.3517 18.923C26.3517 20.629 26.3462 20.7439 26.2423 20.9462C26.0728 21.2797 25.8159 21.3836 25.1762 21.3836H24.6568V18.923V16.4624H25.1762C25.5917 16.4624 25.7448 16.4842 25.9143 16.5717Z" fill="black"/>
<path d="M13.5039 0.0909176C12.5198 0.298706 11.5521 1.05877 11.1038 1.97194C10.7211 2.75934 10.7156 2.78121 10.7156 6.54872V9.90065H9.93928C7.9547 9.90065 6.4567 10.4857 5.18832 11.7543C4.43932 12.5035 3.88714 13.4221 3.60285 14.3954C3.52631 14.6469 3.44977 14.8219 3.40603 14.8219C3.35136 14.8219 3.33496 14.3298 3.33496 12.2902V9.76395L3.62472 9.62725C3.97462 9.46321 4.52133 8.92734 4.69628 8.57191C5.18286 7.56578 5.01338 6.48857 4.23704 5.7121C3.27482 4.74426 1.76589 4.74426 0.787269 5.71757C-0.158547 6.65808 -0.185883 8.11259 0.727131 9.11325C0.880211 9.28276 1.12623 9.46868 1.33945 9.57804L1.69482 9.76395V12.3449V14.9258L1.38319 15.0789C0.995021 15.2648 0.448306 15.7952 0.278825 16.1507C0.0164014 16.692 0 16.8615 0 18.8792C0 20.0877 0.0218686 20.8806 0.0601386 21.0665C0.164014 21.5367 0.3827 21.9304 0.738065 22.2859C1.29025 22.8381 1.81509 23.024 2.85932 23.024H3.47164L3.59738 23.467C4.13316 25.3917 5.69677 27.0212 7.64307 27.6719C8.61076 27.9945 8.6873 28 13.9959 28C19.3045 28 19.381 27.9945 20.3487 27.6719C21.3055 27.3493 22.0873 26.8626 22.8035 26.1463C23.5689 25.3753 24.1265 24.4403 24.3944 23.467L24.5202 23.024H25.1325C25.8432 23.024 26.2095 22.9584 26.6195 22.7561C27.2537 22.4499 27.784 21.7664 27.9317 21.0665C28.0137 20.6728 28.0137 17.1677 27.9317 16.7795C27.8278 16.3092 27.6091 15.9155 27.2537 15.5601C26.7016 15.0024 26.1767 14.8219 25.1325 14.8219H24.5147L24.389 14.4009C24.3233 14.1658 24.1812 13.7994 24.0828 13.5807L23.8969 13.1815H24.3452C24.963 13.1815 25.4769 13.0612 26.0236 12.7933C26.9476 12.3394 27.702 11.3716 27.9098 10.3654C28.0301 9.80223 28.0301 3.3827 27.9098 2.81949C27.6364 1.50715 26.4883 0.358854 25.1762 0.0854492C24.624 -0.0293789 14.0451 -0.0293789 13.5039 0.0909176ZM25.209 1.81336C25.6409 2.01568 25.9362 2.30549 26.1439 2.72653L26.3243 3.09289V6.59247V10.092L26.1439 10.4584C25.9362 10.8794 25.6409 11.1692 25.209 11.3716L24.9029 11.5137L19.7091 11.5411L14.5153 11.5684L13.4656 12.0988C12.8861 12.3941 12.3995 12.6347 12.3831 12.6347C12.3667 12.6347 12.3612 10.4857 12.3667 7.86106L12.3831 3.09289L12.5252 2.79215C12.7767 2.25081 13.1813 1.90085 13.7389 1.72041C13.9248 1.66573 15.0237 1.65479 19.4357 1.66026L24.9029 1.67119L25.209 1.81336ZM2.89759 6.72917C3.14361 6.85493 3.33496 7.16661 3.33496 7.44549C3.33496 7.85012 2.91946 8.26023 2.50942 8.26023C2.25793 8.26023 1.91897 8.04697 1.79869 7.81185C1.59641 7.41815 1.72215 6.98617 2.11032 6.75104C2.37274 6.59247 2.6133 6.587 2.89759 6.72917ZM10.7156 12.8698C10.7156 14.3735 10.7375 14.472 11.1311 14.6962C11.5138 14.9204 11.6013 14.893 13.389 14.0017L15.0401 13.1815H18.479H21.9233L22.1146 13.4385C22.4098 13.8431 22.6668 14.3681 22.8363 14.9039L22.9894 15.3961V18.9503V22.5046L22.8363 22.9858C22.3388 24.5879 21.2453 25.6815 19.6435 26.1791L19.1624 26.3322H13.9959H8.82944L8.34834 26.1791C6.74646 25.6815 5.65303 24.5879 5.15552 22.9858L5.00244 22.5046V18.9503V15.3961L5.15552 14.9149C5.6421 13.3565 6.76286 12.2082 8.23899 11.7598C8.80758 11.5903 9.07 11.552 9.93928 11.5465L10.7156 11.5411V12.8698ZM3.33496 18.923V21.3836H2.81011C2.18686 21.3836 1.9135 21.2688 1.74402 20.9352C1.64561 20.7493 1.64014 20.5962 1.64014 18.9121C1.64561 16.8615 1.65108 16.8396 2.05565 16.5936C2.24153 16.4788 2.33994 16.4624 2.80465 16.4624H3.33496V18.923ZM25.9143 16.5717C26.0564 16.6428 26.1712 16.7576 26.2423 16.8998C26.3462 17.1021 26.3517 17.2169 26.3517 18.923C26.3517 20.629 26.3462 20.7439 26.2423 20.9462C26.0728 21.2797 25.8159 21.3836 25.1762 21.3836H24.6568V18.923V16.4624H25.1762C25.5917 16.4624 25.7448 16.4842 25.9143 16.5717Z" fill="#0E5C36"/>
<path d="M13.5039 0.0909176C12.5198 0.298706 11.5521 1.05877 11.1038 1.97194C10.7211 2.75934 10.7156 2.78121 10.7156 6.54872V9.90065H9.93928C7.9547 9.90065 6.4567 10.4857 5.18832 11.7543C4.43932 12.5035 3.88714 13.4221 3.60285 14.3954C3.52631 14.6469 3.44977 14.8219 3.40603 14.8219C3.35136 14.8219 3.33496 14.3298 3.33496 12.2902V9.76395L3.62472 9.62725C3.97462 9.46321 4.52133 8.92734 4.69628 8.57191C5.18286 7.56578 5.01338 6.48857 4.23704 5.7121C3.27482 4.74426 1.76589 4.74426 0.787269 5.71757C-0.158547 6.65808 -0.185883 8.11259 0.727131 9.11325C0.880211 9.28276 1.12623 9.46868 1.33945 9.57804L1.69482 9.76395V12.3449V14.9258L1.38319 15.0789C0.995021 15.2648 0.448306 15.7952 0.278825 16.1507C0.0164014 16.692 0 16.8615 0 18.8792C0 20.0877 0.0218686 20.8806 0.0601386 21.0665C0.164014 21.5367 0.3827 21.9304 0.738065 22.2859C1.29025 22.8381 1.81509 23.024 2.85932 23.024H3.47164L3.59738 23.467C4.13316 25.3917 5.69677 27.0212 7.64307 27.6719C8.61076 27.9945 8.6873 28 13.9959 28C19.3045 28 19.381 27.9945 20.3487 27.6719C21.3055 27.3493 22.0873 26.8626 22.8035 26.1463C23.5689 25.3753 24.1265 24.4403 24.3944 23.467L24.5202 23.024H25.1325C25.8432 23.024 26.2095 22.9584 26.6195 22.7561C27.2537 22.4499 27.784 21.7664 27.9317 21.0665C28.0137 20.6728 28.0137 17.1677 27.9317 16.7795C27.8278 16.3092 27.6091 15.9155 27.2537 15.5601C26.7016 15.0024 26.1767 14.8219 25.1325 14.8219H24.5147L24.389 14.4009C24.3233 14.1658 24.1812 13.7994 24.0828 13.5807L23.8969 13.1815H24.3452C24.963 13.1815 25.4769 13.0612 26.0236 12.7933C26.9476 12.3394 27.702 11.3716 27.9098 10.3654C28.0301 9.80223 28.0301 3.3827 27.9098 2.81949C27.6364 1.50715 26.4883 0.358854 25.1762 0.0854492C24.624 -0.0293789 14.0451 -0.0293789 13.5039 0.0909176ZM25.209 1.81336C25.6409 2.01568 25.9362 2.30549 26.1439 2.72653L26.3243 3.09289V6.59247V10.092L26.1439 10.4584C25.9362 10.8794 25.6409 11.1692 25.209 11.3716L24.9029 11.5137L19.7091 11.5411L14.5153 11.5684L13.4656 12.0988C12.8861 12.3941 12.3995 12.6347 12.3831 12.6347C12.3667 12.6347 12.3612 10.4857 12.3667 7.86106L12.3831 3.09289L12.5252 2.79215C12.7767 2.25081 13.1813 1.90085 13.7389 1.72041C13.9248 1.66573 15.0237 1.65479 19.4357 1.66026L24.9029 1.67119L25.209 1.81336ZM2.89759 6.72917C3.14361 6.85493 3.33496 7.16661 3.33496 7.44549C3.33496 7.85012 2.91946 8.26023 2.50942 8.26023C2.25793 8.26023 1.91897 8.04697 1.79869 7.81185C1.59641 7.41815 1.72215 6.98617 2.11032 6.75104C2.37274 6.59247 2.6133 6.587 2.89759 6.72917ZM10.7156 12.8698C10.7156 14.3735 10.7375 14.472 11.1311 14.6962C11.5138 14.9204 11.6013 14.893 13.389 14.0017L15.0401 13.1815H18.479H21.9233L22.1146 13.4385C22.4098 13.8431 22.6668 14.3681 22.8363 14.9039L22.9894 15.3961V18.9503V22.5046L22.8363 22.9858C22.3388 24.5879 21.2453 25.6815 19.6435 26.1791L19.1624 26.3322H13.9959H8.82944L8.34834 26.1791C6.74646 25.6815 5.65303 24.5879 5.15552 22.9858L5.00244 22.5046V18.9503V15.3961L5.15552 14.9149C5.6421 13.3565 6.76286 12.2082 8.23899 11.7598C8.80758 11.5903 9.07 11.552 9.93928 11.5465L10.7156 11.5411V12.8698ZM3.33496 18.923V21.3836H2.81011C2.18686 21.3836 1.9135 21.2688 1.74402 20.9352C1.64561 20.7493 1.64014 20.5962 1.64014 18.9121C1.64561 16.8615 1.65108 16.8396 2.05565 16.5936C2.24153 16.4788 2.33994 16.4624 2.80465 16.4624H3.33496V18.923ZM25.9143 16.5717C26.0564 16.6428 26.1712 16.7576 26.2423 16.8998C26.3462 17.1021 26.3517 17.2169 26.3517 18.923C26.3517 20.629 26.3462 20.7439 26.2423 20.9462C26.0728 21.2797 25.8159 21.3836 25.1762 21.3836H24.6568V18.923V16.4624H25.1762C25.5917 16.4624 25.7448 16.4842 25.9143 16.5717Z" fill="white"/>
<path d="M14.477 4.27397C14.2419 4.39426 14.0506 4.71688 14.0506 4.97935C14.0506 5.25275 14.2419 5.56443 14.488 5.6902C14.6957 5.79956 14.7996 5.79956 19.3537 5.79956C23.9079 5.79956 24.0117 5.79956 24.2195 5.6902C24.4655 5.56443 24.6569 5.25275 24.6569 4.97935C24.6569 4.70594 24.4655 4.39426 24.2195 4.2685C24.0117 4.15914 23.9079 4.15914 19.3428 4.15914C14.8051 4.1646 14.6739 4.1646 14.477 4.27397Z" fill="black"/>
<path d="M14.477 4.27397C14.2419 4.39426 14.0506 4.71688 14.0506 4.97935C14.0506 5.25275 14.2419 5.56443 14.488 5.6902C14.6957 5.79956 14.7996 5.79956 19.3537 5.79956C23.9079 5.79956 24.0117 5.79956 24.2195 5.6902C24.4655 5.56443 24.6569 5.25275 24.6569 4.97935C24.6569 4.70594 24.4655 4.39426 24.2195 4.2685C24.0117 4.15914 23.9079 4.15914 19.3428 4.15914C14.8051 4.1646 14.6739 4.1646 14.477 4.27397Z" fill="#0E5C36"/>
<path d="M14.477 4.27397C14.2419 4.39426 14.0506 4.71688 14.0506 4.97935C14.0506 5.25275 14.2419 5.56443 14.488 5.6902C14.6957 5.79956 14.7996 5.79956 19.3537 5.79956C23.9079 5.79956 24.0117 5.79956 24.2195 5.6902C24.4655 5.56443 24.6569 5.25275 24.6569 4.97935C24.6569 4.70594 24.4655 4.39426 24.2195 4.2685C24.0117 4.15914 23.9079 4.15914 19.3428 4.15914C14.8051 4.1646 14.6739 4.1646 14.477 4.27397Z" fill="white"/>
<path d="M14.477 7.55473C14.2419 7.67503 14.0506 7.99764 14.0506 8.26011C14.0506 8.53351 14.2419 8.84519 14.488 8.97096C14.6957 9.08032 14.7996 9.08032 19.3537 9.08032C23.9079 9.08032 24.0117 9.08032 24.2195 8.97096C24.4655 8.84519 24.6569 8.53351 24.6569 8.26011C24.6569 7.98671 24.4655 7.67503 24.2195 7.54926C24.0117 7.4399 23.9079 7.4399 19.3428 7.4399C14.8051 7.44537 14.6739 7.44537 14.477 7.55473Z" fill="black"/>
<path d="M14.477 7.55473C14.2419 7.67503 14.0506 7.99764 14.0506 8.26011C14.0506 8.53351 14.2419 8.84519 14.488 8.97096C14.6957 9.08032 14.7996 9.08032 19.3537 9.08032C23.9079 9.08032 24.0117 9.08032 24.2195 8.97096C24.4655 8.84519 24.6569 8.53351 24.6569 8.26011C24.6569 7.98671 24.4655 7.67503 24.2195 7.54926C24.0117 7.4399 23.9079 7.4399 19.3428 7.4399C14.8051 7.44537 14.6739 7.44537 14.477 7.55473Z" fill="#0E5C36"/>
<path d="M14.477 7.55473C14.2419 7.67503 14.0506 7.99764 14.0506 8.26011C14.0506 8.53351 14.2419 8.84519 14.488 8.97096C14.6957 9.08032 14.7996 9.08032 19.3537 9.08032C23.9079 9.08032 24.0117 9.08032 24.2195 8.97096C24.4655 8.84519 24.6569 8.53351 24.6569 8.26011C24.6569 7.98671 24.4655 7.67503 24.2195 7.54926C24.0117 7.4399 23.9079 7.4399 19.3428 7.4399C14.8051 7.44537 14.6739 7.44537 14.477 7.55473Z" fill="white"/>
<path d="M9.50194 16.5774C9.13017 16.7688 9.0755 16.9656 9.0755 18.103C9.0755 18.9833 9.08643 19.1146 9.18484 19.306C9.31059 19.552 9.62222 19.7434 9.89557 19.7434C10.1689 19.7434 10.4806 19.552 10.6063 19.306C10.7047 19.1146 10.7156 18.9833 10.7156 18.103C10.7156 17.2226 10.7047 17.0914 10.6063 16.9C10.404 16.5008 9.91197 16.3587 9.50194 16.5774Z" fill="black"/>
<path d="M9.50194 16.5774C9.13017 16.7688 9.0755 16.9656 9.0755 18.103C9.0755 18.9833 9.08643 19.1146 9.18484 19.306C9.31059 19.552 9.62222 19.7434 9.89557 19.7434C10.1689 19.7434 10.4806 19.552 10.6063 19.306C10.7047 19.1146 10.7156 18.9833 10.7156 18.103C10.7156 17.2226 10.7047 17.0914 10.6063 16.9C10.404 16.5008 9.91197 16.3587 9.50194 16.5774Z" fill="#0E5C36"/>
<path d="M9.50194 16.5774C9.13017 16.7688 9.0755 16.9656 9.0755 18.103C9.0755 18.9833 9.08643 19.1146 9.18484 19.306C9.31059 19.552 9.62222 19.7434 9.89557 19.7434C10.1689 19.7434 10.4806 19.552 10.6063 19.306C10.7047 19.1146 10.7156 18.9833 10.7156 18.103C10.7156 17.2226 10.7047 17.0914 10.6063 16.9C10.404 16.5008 9.91197 16.3587 9.50194 16.5774Z" fill="white"/>
<path d="M17.7027 16.5774C17.3309 16.7688 17.2762 16.9656 17.2762 18.103C17.2762 18.9833 17.2872 19.1146 17.3856 19.306C17.5113 19.552 17.823 19.7434 18.0963 19.7434C18.3697 19.7434 18.6813 19.552 18.807 19.306C18.9055 19.1146 18.9164 18.9833 18.9164 18.103C18.9164 17.2226 18.9055 17.0914 18.807 16.9C18.6048 16.5008 18.1127 16.3587 17.7027 16.5774Z" fill="black"/>
<path d="M17.7027 16.5774C17.3309 16.7688 17.2762 16.9656 17.2762 18.103C17.2762 18.9833 17.2872 19.1146 17.3856 19.306C17.5113 19.552 17.823 19.7434 18.0963 19.7434C18.3697 19.7434 18.6813 19.552 18.807 19.306C18.9055 19.1146 18.9164 18.9833 18.9164 18.103C18.9164 17.2226 18.9055 17.0914 18.807 16.9C18.6048 16.5008 18.1127 16.3587 17.7027 16.5774Z" fill="#0E5C36"/>
<path d="M17.7027 16.5774C17.3309 16.7688 17.2762 16.9656 17.2762 18.103C17.2762 18.9833 17.2872 19.1146 17.3856 19.306C17.5113 19.552 17.823 19.7434 18.0963 19.7434C18.3697 19.7434 18.6813 19.552 18.807 19.306C18.9055 19.1146 18.9164 18.9833 18.9164 18.103C18.9164 17.2226 18.9055 17.0914 18.807 16.9C18.6048 16.5008 18.1127 16.3587 17.7027 16.5774Z" fill="white"/>
<path d="M11.9621 21.4988C11.727 21.6191 11.5356 21.9417 11.5356 22.2042C11.5356 22.4776 11.727 22.7893 11.973 22.9151C12.1753 23.0189 12.2901 23.0244 13.9959 23.0244C15.7016 23.0244 15.8164 23.0189 16.0187 22.9151C16.2647 22.7893 16.4561 22.4776 16.4561 22.2042C16.4561 21.9308 16.2647 21.6191 16.0187 21.4934C15.8164 21.3895 15.7016 21.384 13.9849 21.384C12.2792 21.3895 12.1534 21.3949 11.9621 21.4988Z" fill="black"/>
<path d="M11.9621 21.4988C11.727 21.6191 11.5356 21.9417 11.5356 22.2042C11.5356 22.4776 11.727 22.7893 11.973 22.9151C12.1753 23.0189 12.2901 23.0244 13.9959 23.0244C15.7016 23.0244 15.8164 23.0189 16.0187 22.9151C16.2647 22.7893 16.4561 22.4776 16.4561 22.2042C16.4561 21.9308 16.2647 21.6191 16.0187 21.4934C15.8164 21.3895 15.7016 21.384 13.9849 21.384C12.2792 21.3895 12.1534 21.3949 11.9621 21.4988Z" fill="#0E5C36"/>
<path d="M11.9621 21.4988C11.727 21.6191 11.5356 21.9417 11.5356 22.2042C11.5356 22.4776 11.727 22.7893 11.973 22.9151C12.1753 23.0189 12.2901 23.0244 13.9959 23.0244C15.7016 23.0244 15.8164 23.0189 16.0187 22.9151C16.2647 22.7893 16.4561 22.4776 16.4561 22.2042C16.4561 21.9308 16.2647 21.6191 16.0187 21.4934C15.8164 21.3895 15.7016 21.384 13.9849 21.384C12.2792 21.3895 12.1534 21.3949 11.9621 21.4988Z" fill="white"/>
</svg>
