<svg width="24" height="24" viewBox="0 0 24 24" fill="none" xmlns="http://www.w3.org/2000/svg">
<path d="M20.5 8.967L19.4562 10.6888L6.79436 3.72184L7.8382 2L11.0115 3.74175L12.4311 3.37349L16.9509 5.86171L17.3372 7.22525L20.5 8.967ZM5.5 19.0094V7.066H10.7923L18.0261 11.0471V19.0094C18.0261 19.5374 17.8061 20.0437 17.4146 20.417C17.0231 20.7903 16.4921 21 15.9384 21H7.58768C7.03399 21 6.50298 20.7903 6.11147 20.417C5.71995 20.0437 5.5 19.5374 5.5 19.0094Z" fill="black"/>
<path d="M20.5 8.967L19.4562 10.6888L6.79436 3.72184L7.8382 2L11.0115 3.74175L12.4311 3.37349L16.9509 5.86171L17.3372 7.22525L20.5 8.967ZM5.5 19.0094V7.066H10.7923L18.0261 11.0471V19.0094C18.0261 19.5374 17.8061 20.0437 17.4146 20.417C17.0231 20.7903 16.4921 21 15.9384 21H7.58768C7.03399 21 6.50298 20.7903 6.11147 20.417C5.71995 20.0437 5.5 19.5374 5.5 19.0094Z" fill="#E67D13"/>
<path d="M20.5 8.967L19.4562 10.6888L6.79436 3.72184L7.8382 2L11.0115 3.74175L12.4311 3.37349L16.9509 5.86171L17.3372 7.22525L20.5 8.967ZM5.5 19.0094V7.066H10.7923L18.0261 11.0471V19.0094C18.0261 19.5374 17.8061 20.0437 17.4146 20.417C17.0231 20.7903 16.4921 21 15.9384 21H7.58768C7.03399 21 6.50298 20.7903 6.11147 20.417C5.71995 20.0437 5.5 19.5374 5.5 19.0094Z" fill="#0E5C36"/>
<path d="M20.5 8.967L19.4562 10.6888L6.79436 3.72184L7.8382 2L11.0115 3.74175L12.4311 3.37349L16.9509 5.86171L17.3372 7.22525L20.5 8.967ZM5.5 19.0094V7.066H10.7923L18.0261 11.0471V19.0094C18.0261 19.5374 17.8061 20.0437 17.4146 20.417C17.0231 20.7903 16.4921 21 15.9384 21H7.58768C7.03399 21 6.50298 20.7903 6.11147 20.417C5.71995 20.0437 5.5 19.5374 5.5 19.0094Z" fill="white"/>
</svg>
