<svg width="24" height="24" viewBox="0 0 24 24" fill="none" xmlns="http://www.w3.org/2000/svg">
<path d="M14.3333 16.8333L9.66667 12.1666M15.5 14.5C15.5 16.433 13.933 18 12 18C10.067 18 8.5 16.433 8.5 14.5C8.5 12.567 10.067 11 12 11C13.933 11 15.5 12.567 15.5 14.5Z" stroke="#E67D13" stroke-width="1.6"/>
<path d="M14.3333 16.8333L9.66667 12.1666M15.5 14.5C15.5 16.433 13.933 18 12 18C10.067 18 8.5 16.433 8.5 14.5C8.5 12.567 10.067 11 12 11C13.933 11 15.5 12.567 15.5 14.5Z" stroke="#0E5C36" stroke-width="1.6"/>
<path d="M14 3V7C14 7.26522 14.1054 7.51957 14.2929 7.70711C14.4804 7.89464 14.7348 8 15 8H19" stroke="black" stroke-width="2" stroke-linecap="round" stroke-linejoin="round"/>
<path d="M14 3V7C14 7.26522 14.1054 7.51957 14.2929 7.70711C14.4804 7.89464 14.7348 8 15 8H19" stroke="#0E5C36" stroke-width="2" stroke-linecap="round" stroke-linejoin="round"/>
<path d="M17 21H7C6.46957 21 5.96086 20.7893 5.58579 20.4142C5.21071 20.0391 5 19.5304 5 19V5C5 4.46957 5.21071 3.96086 5.58579 3.58579C5.96086 3.21071 6.46957 3 7 3H14L19 8V19C19 19.5304 18.7893 20.0391 18.4142 20.4142C18.0391 20.7893 17.5304 21 17 21Z" stroke="black" stroke-width="2" stroke-linecap="round" stroke-linejoin="round"/>
<path d="M17 21H7C6.46957 21 5.96086 20.7893 5.58579 20.4142C5.21071 20.0391 5 19.5304 5 19V5C5 4.46957 5.21071 3.96086 5.58579 3.58579C5.96086 3.21071 6.46957 3 7 3H14L19 8V19C19 19.5304 18.7893 20.0391 18.4142 20.4142C18.0391 20.7893 17.5304 21 17 21Z" stroke="#0E5C36" stroke-width="2" stroke-linecap="round" stroke-linejoin="round"/>
</svg>
