<svg width="22" height="20" viewBox="0 0 22 20" fill="none" xmlns="http://www.w3.org/2000/svg">
<path d="M16.4 6.44444L20 10M20 10L16.4 13.5556M20 10H8.3M13.7 3.07026C12.5527 2.38958 11.2207 2 9.8 2C5.49218 2 2 5.58172 2 10C2 14.4183 5.49218 18 9.8 18C11.2207 18 12.5527 17.6104 13.7 16.9297" stroke="black" stroke-width="2.3" stroke-linecap="round" stroke-linejoin="round"/>
<path d="M16.4 6.44444L20 10M20 10L16.4 13.5556M20 10H8.3M13.7 3.07026C12.5527 2.38958 11.2207 2 9.8 2C5.49218 2 2 5.58172 2 10C2 14.4183 5.49218 18 9.8 18C11.2207 18 12.5527 17.6104 13.7 16.9297" stroke="#0E5C36" stroke-width="2.3" stroke-linecap="round" stroke-linejoin="round"/>
</svg>
