<svg width="18" height="22" viewBox="0 0 18 22" fill="none" xmlns="http://www.w3.org/2000/svg">
<g clip-path="url(#clip0_557_3070)">
<path d="M15.75 22C16.3467 22 16.919 21.7682 17.341 21.3556C17.7629 20.9431 18 20.3835 18 19.8V6.6L11.25 0H2.25C1.65326 0 1.08097 0.231785 0.65901 0.644365C0.237053 1.05694 0 1.61652 0 2.2V19.8C0 20.3835 0.237053 20.9431 0.65901 21.3556C1.08097 21.7682 1.65326 22 2.25 22H15.75ZM10.125 2.2L15.75 7.7H10.125V2.2ZM3.375 6.6H6.75V8.8H3.375V6.6ZM3.375 11H14.625V13.2H3.375V11ZM3.375 15.4H14.625V17.6H3.375V15.4Z" fill="#E67D13"/>
<path d="M15.75 22C16.3467 22 16.919 21.7682 17.341 21.3556C17.7629 20.9431 18 20.3835 18 19.8V6.6L11.25 0H2.25C1.65326 0 1.08097 0.231785 0.65901 0.644365C0.237053 1.05694 0 1.61652 0 2.2V19.8C0 20.3835 0.237053 20.9431 0.65901 21.3556C1.08097 21.7682 1.65326 22 2.25 22H15.75ZM10.125 2.2L15.75 7.7H10.125V2.2ZM3.375 6.6H6.75V8.8H3.375V6.6ZM3.375 11H14.625V13.2H3.375V11ZM3.375 15.4H14.625V17.6H3.375V15.4Z" fill="black"/>
</g>
<defs>
<clipPath id="clip0_557_3070">
<rect width="18" height="22" fill="white"/>
</clipPath>
</defs>
</svg>
