<svg width="24" height="22" viewBox="0 0 24 22" fill="none" xmlns="http://www.w3.org/2000/svg">
<g clip-path="url(#clip0_1261_7177)">
<path d="M8 1.5C8 1.10218 8.15804 0.720644 8.43934 0.43934C8.72064 0.158035 9.10218 0 9.5 0H14.5C14.8978 0 15.2794 0.158035 15.5607 0.43934C15.842 0.720644 16 1.10218 16 1.5V2.5C16 2.89782 15.842 3.27936 15.5607 3.56066C15.2794 3.84196 14.8978 4 14.5 4H9.5C9.10218 4 8.72064 3.84196 8.43934 3.56066C8.15804 3.27936 8 2.89782 8 2.5V1.5Z" fill="black"/>
<path fill-rule="evenodd" clip-rule="evenodd" d="M6.5 1C5.242 1.07795 4.448 1.30065 3.879 1.93536C3 2.91415 3 4.48867 3 7.63772V14.3189C3 17.469 3 19.0435 3.879 20.0223C4.757 21 6.172 21 9 21H15C17.828 21 19.243 21 20.121 20.0223C21 19.0424 21 17.469 21 14.3189V7.63772C21 4.48867 21 2.91415 20.121 1.93536C19.552 1.30065 18.758 1.07795 17.5 1V1.51556C17.5 2.40154 17.1839 3.25122 16.6213 3.8777C16.0587 4.50418 15.2956 4.85613 14.5 4.85613H9.5C8.70435 4.85613 7.94129 4.50418 7.37868 3.8777C6.81607 3.25122 6.5 2.40154 6.5 1.51556V1ZM6.25 8.1967C6.25 7.97521 6.32902 7.76279 6.46967 7.60617C6.61032 7.44955 6.80109 7.36156 7 7.36156H17C17.1989 7.36156 17.3897 7.44955 17.5303 7.60617C17.671 7.76279 17.75 7.97521 17.75 8.1967C17.75 8.4182 17.671 8.63062 17.5303 8.78724C17.3897 8.94386 17.1989 9.03185 17 9.03185H7C6.80109 9.03185 6.61032 8.94386 6.46967 8.78724C6.32902 8.63062 6.25 8.4182 6.25 8.1967ZM7.25 12.094C7.25 11.8725 7.32902 11.6601 7.46967 11.5035C7.61032 11.3469 7.80109 11.2589 8 11.2589H16C16.1989 11.2589 16.3897 11.3469 16.5303 11.5035C16.671 11.6601 16.75 11.8725 16.75 12.094C16.75 12.3155 16.671 12.528 16.5303 12.6846C16.3897 12.8412 16.1989 12.9292 16 12.9292H8C7.80109 12.9292 7.61032 12.8412 7.46967 12.6846C7.32902 12.528 7.25 12.3155 7.25 12.094ZM8.25 15.9914C8.25 15.7699 8.32902 15.5575 8.46967 15.4008C8.61032 15.2442 8.80109 15.1562 9 15.1562H15C15.1989 15.1562 15.3897 15.2442 15.5303 15.4008C15.671 15.5575 15.75 15.7699 15.75 15.9914C15.75 16.2129 15.671 16.4253 15.5303 16.5819C15.3897 16.7385 15.1989 16.8265 15 16.8265H9C8.80109 16.8265 8.61032 16.7385 8.46967 16.5819C8.32902 16.4253 8.25 16.2129 8.25 15.9914Z" fill="black"/>
</g>
<defs>
<clipPath id="clip0_1261_7177">
<rect width="24" height="22" fill="white"/>
</clipPath>
</defs>
</svg>
