<svg width="24" height="24" viewBox="0 0 24 24" fill="none" xmlns="http://www.w3.org/2000/svg">
<path d="M14 3V7C14 7.26522 14.1054 7.51957 14.2929 7.70711C14.4804 7.89464 14.7348 8 15 8H19" stroke="black" stroke-width="2" stroke-linecap="round" stroke-linejoin="round"/>
<path d="M14 3V7C14 7.26522 14.1054 7.51957 14.2929 7.70711C14.4804 7.89464 14.7348 8 15 8H19" stroke="#0E5C36" stroke-width="2" stroke-linecap="round" stroke-linejoin="round"/>
<path d="M17 21H7C6.46957 21 5.96086 20.7893 5.58579 20.4142C5.21071 20.0391 5 19.5304 5 19V5C5 4.46957 5.21071 3.96086 5.58579 3.58579C5.96086 3.21071 6.46957 3 7 3H14L19 8V19C19 19.5304 18.7893 20.0391 18.4142 20.4142C18.0391 20.7893 17.5304 21 17 21Z" stroke="black" stroke-width="2" stroke-linecap="round" stroke-linejoin="round"/>
<path d="M17 21H7C6.46957 21 5.96086 20.7893 5.58579 20.4142C5.21071 20.0391 5 19.5304 5 19V5C5 4.46957 5.21071 3.96086 5.58579 3.58579C5.96086 3.21071 6.46957 3 7 3H14L19 8V19C19 19.5304 18.7893 20.0391 18.4142 20.4142C18.0391 20.7893 17.5304 21 17 21Z" stroke="#0E5C36" stroke-width="2" stroke-linecap="round" stroke-linejoin="round"/>
<path d="M8 14C8 15.0609 8.42143 16.0783 9.17157 16.8284C9.92172 17.5786 10.9391 18 12 18C13.0609 18 14.0783 17.5786 14.8284 16.8284C15.5786 16.0783 16 15.0609 16 14C16 12.9391 15.5786 11.9217 14.8284 11.1716C14.0783 10.4214 13.0609 10 12 10C10.9391 10 9.92172 10.4214 9.17157 11.1716C8.42143 11.9217 8 12.9391 8 14Z" stroke="black" stroke-width="1.6" stroke-linecap="round" stroke-linejoin="round"/>
<path d="M8 14C8 15.0609 8.42143 16.0783 9.17157 16.8284C9.92172 17.5786 10.9391 18 12 18C13.0609 18 14.0783 17.5786 14.8284 16.8284C15.5786 16.0783 16 15.0609 16 14C16 12.9391 15.5786 11.9217 14.8284 11.1716C14.0783 10.4214 13.0609 10 12 10C10.9391 10 9.92172 10.4214 9.17157 11.1716C8.42143 11.9217 8 12.9391 8 14Z" stroke="#0E5C36" stroke-width="1.6" stroke-linecap="round" stroke-linejoin="round"/>
<path d="M12 12.4961V14.0001L13 15.0001" stroke="black" stroke-width="1.6" stroke-linecap="round" stroke-linejoin="round"/>
<path d="M12 12.4961V14.0001L13 15.0001" stroke="#0E5C36" stroke-width="1.6" stroke-linecap="round" stroke-linejoin="round"/>
</svg>
