<svg width="24" height="24" viewBox="0 0 24 24" fill="none" xmlns="http://www.w3.org/2000/svg">
<path d="M10.8187 13.275H9.24375C9.15092 13.275 9.0619 13.2381 8.99626 13.1725C8.93062 13.1068 8.89375 13.0178 8.89375 12.925V11.35C8.89375 11.2572 8.93062 11.1682 8.99626 11.1025C9.0619 11.0369 9.15092 11 9.24375 11C9.33658 11 9.4256 11.0369 9.49124 11.1025C9.55687 11.1682 9.59375 11.2572 9.59375 11.35V12.575H10.8187C10.9116 12.575 11.0006 12.6119 11.0662 12.6775C11.1319 12.7432 11.1687 12.8322 11.1687 12.925C11.1687 13.0178 11.1319 13.1068 11.0662 13.1725C11.0006 13.2381 10.9116 13.275 10.8187 13.275Z" fill="black"/>
<path d="M10.8187 13.275H9.24375C9.15092 13.275 9.0619 13.2381 8.99626 13.1725C8.93062 13.1068 8.89375 13.0178 8.89375 12.925V11.35C8.89375 11.2572 8.93062 11.1682 8.99626 11.1025C9.0619 11.0369 9.15092 11 9.24375 11C9.33658 11 9.4256 11.0369 9.49124 11.1025C9.55687 11.1682 9.59375 11.2572 9.59375 11.35V12.575H10.8187C10.9116 12.575 11.0006 12.6119 11.0662 12.6775C11.1319 12.7432 11.1687 12.8322 11.1687 12.925C11.1687 13.0178 11.1319 13.1068 11.0662 13.1725C11.0006 13.2381 10.9116 13.275 10.8187 13.275Z" fill="#E67D13"/>
<path d="M10.8187 13.275H9.24375C9.15092 13.275 9.0619 13.2381 8.99626 13.1725C8.93062 13.1068 8.89375 13.0178 8.89375 12.925V11.35C8.89375 11.2572 8.93062 11.1682 8.99626 11.1025C9.0619 11.0369 9.15092 11 9.24375 11C9.33658 11 9.4256 11.0369 9.49124 11.1025C9.55687 11.1682 9.59375 11.2572 9.59375 11.35V12.575H10.8187C10.9116 12.575 11.0006 12.6119 11.0662 12.6775C11.1319 12.7432 11.1687 12.8322 11.1687 12.925C11.1687 13.0178 11.1319 13.1068 11.0662 13.1725C11.0006 13.2381 10.9116 13.275 10.8187 13.275Z" fill="#0E5C36"/>
<path d="M15.15 14.85C15.0572 14.85 14.9681 14.8131 14.9025 14.7475C14.8369 14.6818 14.8 14.5928 14.8 14.5C14.8003 13.8838 14.5972 13.2848 14.2222 12.7959C13.8472 12.307 13.3213 11.9555 12.7262 11.7959C12.131 11.6364 11.4999 11.6778 10.9306 11.9137C10.3614 12.1495 9.88593 12.5667 9.578 13.1004C9.53149 13.1807 9.45498 13.2393 9.36528 13.2632C9.27559 13.2871 9.18007 13.2744 9.09972 13.2279C9.01938 13.1814 8.96081 13.1049 8.93688 13.0152C8.91296 12.9255 8.92564 12.83 8.97215 12.7497C9.35724 12.0826 9.95169 11.5613 10.6633 11.2667C11.3749 10.972 12.1638 10.9204 12.9078 11.1198C13.6517 11.3193 14.309 11.7587 14.7777 12.3699C15.2464 12.981 15.5003 13.7298 15.5 14.5C15.5 14.5928 15.4631 14.6818 15.3975 14.7475C15.3318 14.8131 15.2428 14.85 15.15 14.85ZM14.7562 18C14.6634 18 14.5744 17.9631 14.5088 17.8975C14.4431 17.8319 14.4062 17.7428 14.4062 17.65V16.425H13.1812C13.0884 16.425 12.9994 16.3881 12.9338 16.3225C12.8681 16.2568 12.8312 16.1678 12.8312 16.075C12.8312 15.9822 12.8681 15.8932 12.9338 15.8275C12.9994 15.7619 13.0884 15.725 13.1812 15.725H14.7562C14.8491 15.725 14.9381 15.7619 15.0037 15.8275C15.0694 15.8932 15.1062 15.9822 15.1062 16.075V17.65C15.1062 17.7428 15.0694 17.8319 15.0037 17.8975C14.9381 17.9631 14.8491 18 14.7562 18Z" fill="black"/>
<path d="M15.15 14.85C15.0572 14.85 14.9681 14.8131 14.9025 14.7475C14.8369 14.6818 14.8 14.5928 14.8 14.5C14.8003 13.8838 14.5972 13.2848 14.2222 12.7959C13.8472 12.307 13.3213 11.9555 12.7262 11.7959C12.131 11.6364 11.4999 11.6778 10.9306 11.9137C10.3614 12.1495 9.88593 12.5667 9.578 13.1004C9.53149 13.1807 9.45498 13.2393 9.36528 13.2632C9.27559 13.2871 9.18007 13.2744 9.09972 13.2279C9.01938 13.1814 8.96081 13.1049 8.93688 13.0152C8.91296 12.9255 8.92564 12.83 8.97215 12.7497C9.35724 12.0826 9.95169 11.5613 10.6633 11.2667C11.3749 10.972 12.1638 10.9204 12.9078 11.1198C13.6517 11.3193 14.309 11.7587 14.7777 12.3699C15.2464 12.981 15.5003 13.7298 15.5 14.5C15.5 14.5928 15.4631 14.6818 15.3975 14.7475C15.3318 14.8131 15.2428 14.85 15.15 14.85ZM14.7562 18C14.6634 18 14.5744 17.9631 14.5088 17.8975C14.4431 17.8319 14.4062 17.7428 14.4062 17.65V16.425H13.1812C13.0884 16.425 12.9994 16.3881 12.9338 16.3225C12.8681 16.2568 12.8312 16.1678 12.8312 16.075C12.8312 15.9822 12.8681 15.8932 12.9338 15.8275C12.9994 15.7619 13.0884 15.725 13.1812 15.725H14.7562C14.8491 15.725 14.9381 15.7619 15.0037 15.8275C15.0694 15.8932 15.1062 15.9822 15.1062 16.075V17.65C15.1062 17.7428 15.0694 17.8319 15.0037 17.8975C14.9381 17.9631 14.8491 18 14.7562 18Z" fill="#E67D13"/>
<path d="M15.15 14.85C15.0572 14.85 14.9681 14.8131 14.9025 14.7475C14.8369 14.6818 14.8 14.5928 14.8 14.5C14.8003 13.8838 14.5972 13.2848 14.2222 12.7959C13.8472 12.307 13.3213 11.9555 12.7262 11.7959C12.131 11.6364 11.4999 11.6778 10.9306 11.9137C10.3614 12.1495 9.88593 12.5667 9.578 13.1004C9.53149 13.1807 9.45498 13.2393 9.36528 13.2632C9.27559 13.2871 9.18007 13.2744 9.09972 13.2279C9.01938 13.1814 8.96081 13.1049 8.93688 13.0152C8.91296 12.9255 8.92564 12.83 8.97215 12.7497C9.35724 12.0826 9.95169 11.5613 10.6633 11.2667C11.3749 10.972 12.1638 10.9204 12.9078 11.1198C13.6517 11.3193 14.309 11.7587 14.7777 12.3699C15.2464 12.981 15.5003 13.7298 15.5 14.5C15.5 14.5928 15.4631 14.6818 15.3975 14.7475C15.3318 14.8131 15.2428 14.85 15.15 14.85ZM14.7562 18C14.6634 18 14.5744 17.9631 14.5088 17.8975C14.4431 17.8319 14.4062 17.7428 14.4062 17.65V16.425H13.1812C13.0884 16.425 12.9994 16.3881 12.9338 16.3225C12.8681 16.2568 12.8312 16.1678 12.8312 16.075C12.8312 15.9822 12.8681 15.8932 12.9338 15.8275C12.9994 15.7619 13.0884 15.725 13.1812 15.725H14.7562C14.8491 15.725 14.9381 15.7619 15.0037 15.8275C15.0694 15.8932 15.1062 15.9822 15.1062 16.075V17.65C15.1062 17.7428 15.0694 17.8319 15.0037 17.8975C14.9381 17.9631 14.8491 18 14.7562 18Z" fill="#0E5C36"/>
<path d="M12 18C11.072 17.9991 10.1823 17.63 9.52615 16.9739C8.86997 16.3177 8.50093 15.428 8.5 14.5C8.5 14.4072 8.53687 14.3182 8.60251 14.2525C8.66815 14.1869 8.75717 14.15 8.85 14.15C8.94283 14.15 9.03185 14.1869 9.09749 14.2525C9.16313 14.3182 9.2 14.4072 9.2 14.5C9.19973 15.1162 9.40285 15.7152 9.77782 16.2041C10.1528 16.693 10.6787 17.0445 11.2738 17.2041C11.869 17.3636 12.5001 17.3222 13.0694 17.0863C13.6386 16.8505 14.1141 16.4333 14.422 15.8996C14.445 15.8599 14.4757 15.825 14.5122 15.7971C14.5487 15.7691 14.5903 15.7487 14.6347 15.7368C14.6791 15.725 14.7254 15.722 14.771 15.728C14.8166 15.7341 14.8605 15.749 14.9003 15.7721C14.9401 15.7951 14.9749 15.8257 15.0029 15.8622C15.0308 15.8987 15.0513 15.9404 15.0631 15.9848C15.075 16.0292 15.0779 16.0755 15.0719 16.1211C15.0658 16.1666 15.0509 16.2106 15.0278 16.2503C14.7201 16.7812 14.2786 17.222 13.7473 17.529C13.216 17.836 12.6136 17.9984 12 18Z" fill="black"/>
<path d="M12 18C11.072 17.9991 10.1823 17.63 9.52615 16.9739C8.86997 16.3177 8.50093 15.428 8.5 14.5C8.5 14.4072 8.53687 14.3182 8.60251 14.2525C8.66815 14.1869 8.75717 14.15 8.85 14.15C8.94283 14.15 9.03185 14.1869 9.09749 14.2525C9.16313 14.3182 9.2 14.4072 9.2 14.5C9.19973 15.1162 9.40285 15.7152 9.77782 16.2041C10.1528 16.693 10.6787 17.0445 11.2738 17.2041C11.869 17.3636 12.5001 17.3222 13.0694 17.0863C13.6386 16.8505 14.1141 16.4333 14.422 15.8996C14.445 15.8599 14.4757 15.825 14.5122 15.7971C14.5487 15.7691 14.5903 15.7487 14.6347 15.7368C14.6791 15.725 14.7254 15.722 14.771 15.728C14.8166 15.7341 14.8605 15.749 14.9003 15.7721C14.9401 15.7951 14.9749 15.8257 15.0029 15.8622C15.0308 15.8987 15.0513 15.9404 15.0631 15.9848C15.075 16.0292 15.0779 16.0755 15.0719 16.1211C15.0658 16.1666 15.0509 16.2106 15.0278 16.2503C14.7201 16.7812 14.2786 17.222 13.7473 17.529C13.216 17.836 12.6136 17.9984 12 18Z" fill="#E67D13"/>
<path d="M12 18C11.072 17.9991 10.1823 17.63 9.52615 16.9739C8.86997 16.3177 8.50093 15.428 8.5 14.5C8.5 14.4072 8.53687 14.3182 8.60251 14.2525C8.66815 14.1869 8.75717 14.15 8.85 14.15C8.94283 14.15 9.03185 14.1869 9.09749 14.2525C9.16313 14.3182 9.2 14.4072 9.2 14.5C9.19973 15.1162 9.40285 15.7152 9.77782 16.2041C10.1528 16.693 10.6787 17.0445 11.2738 17.2041C11.869 17.3636 12.5001 17.3222 13.0694 17.0863C13.6386 16.8505 14.1141 16.4333 14.422 15.8996C14.445 15.8599 14.4757 15.825 14.5122 15.7971C14.5487 15.7691 14.5903 15.7487 14.6347 15.7368C14.6791 15.725 14.7254 15.722 14.771 15.728C14.8166 15.7341 14.8605 15.749 14.9003 15.7721C14.9401 15.7951 14.9749 15.8257 15.0029 15.8622C15.0308 15.8987 15.0513 15.9404 15.0631 15.9848C15.075 16.0292 15.0779 16.0755 15.0719 16.1211C15.0658 16.1666 15.0509 16.2106 15.0278 16.2503C14.7201 16.7812 14.2786 17.222 13.7473 17.529C13.216 17.836 12.6136 17.9984 12 18Z" fill="#0E5C36"/>
<path d="M10.8187 13.275H9.24375C9.15092 13.275 9.0619 13.2381 8.99626 13.1725C8.93062 13.1068 8.89375 13.0178 8.89375 12.925V11.35C8.89375 11.2572 8.93062 11.1682 8.99626 11.1025C9.0619 11.0369 9.15092 11 9.24375 11C9.33658 11 9.4256 11.0369 9.49124 11.1025C9.55687 11.1682 9.59375 11.2572 9.59375 11.35V12.575H10.8187C10.9116 12.575 11.0006 12.6119 11.0662 12.6775C11.1319 12.7432 11.1687 12.8322 11.1687 12.925C11.1687 13.0178 11.1319 13.1068 11.0662 13.1725C11.0006 13.2381 10.9116 13.275 10.8187 13.275Z" stroke="#0E5C36" stroke-width="0.6"/>
<path d="M15.15 14.85C15.0572 14.85 14.9681 14.8131 14.9025 14.7475C14.8369 14.6818 14.8 14.5928 14.8 14.5C14.8003 13.8838 14.5972 13.2848 14.2222 12.7959C13.8472 12.307 13.3213 11.9555 12.7262 11.7959C12.131 11.6364 11.4999 11.6778 10.9306 11.9137C10.3614 12.1495 9.88593 12.5667 9.578 13.1004C9.53149 13.1807 9.45498 13.2393 9.36528 13.2632C9.27559 13.2871 9.18007 13.2744 9.09972 13.2279C9.01938 13.1814 8.96081 13.1049 8.93688 13.0152C8.91296 12.9255 8.92564 12.83 8.97215 12.7497C9.35724 12.0826 9.95169 11.5613 10.6633 11.2667C11.3749 10.972 12.1638 10.9204 12.9078 11.1198C13.6517 11.3193 14.309 11.7587 14.7777 12.3699C15.2464 12.981 15.5003 13.7298 15.5 14.5C15.5 14.5928 15.4631 14.6818 15.3975 14.7475C15.3318 14.8131 15.2428 14.85 15.15 14.85ZM14.7562 18C14.6634 18 14.5744 17.9631 14.5088 17.8975C14.4431 17.8319 14.4062 17.7428 14.4062 17.65V16.425H13.1812C13.0884 16.425 12.9994 16.3881 12.9338 16.3225C12.8681 16.2568 12.8312 16.1678 12.8312 16.075C12.8312 15.9822 12.8681 15.8932 12.9338 15.8275C12.9994 15.7619 13.0884 15.725 13.1812 15.725H14.7562C14.8491 15.725 14.9381 15.7619 15.0037 15.8275C15.0694 15.8932 15.1062 15.9822 15.1062 16.075V17.65C15.1062 17.7428 15.0694 17.8319 15.0037 17.8975C14.9381 17.9631 14.8491 18 14.7562 18Z" stroke="#0E5C36" stroke-width="0.6"/>
<path d="M12 18C11.072 17.9991 10.1823 17.63 9.52615 16.9739C8.86997 16.3177 8.50093 15.428 8.5 14.5C8.5 14.4072 8.53687 14.3182 8.60251 14.2525C8.66815 14.1869 8.75717 14.15 8.85 14.15C8.94283 14.15 9.03185 14.1869 9.09749 14.2525C9.16313 14.3182 9.2 14.4072 9.2 14.5C9.19973 15.1162 9.40285 15.7152 9.77782 16.2041C10.1528 16.693 10.6787 17.0445 11.2738 17.2041C11.869 17.3636 12.5001 17.3222 13.0694 17.0863C13.6386 16.8505 14.1141 16.4333 14.422 15.8996C14.445 15.8599 14.4757 15.825 14.5122 15.7971C14.5487 15.7691 14.5903 15.7487 14.6347 15.7368C14.6791 15.725 14.7254 15.722 14.771 15.728C14.8166 15.7341 14.8605 15.749 14.9003 15.7721C14.9401 15.7951 14.9749 15.8257 15.0029 15.8622C15.0308 15.8987 15.0513 15.9404 15.0631 15.9848C15.075 16.0292 15.0779 16.0755 15.0719 16.1211C15.0658 16.1666 15.0509 16.2106 15.0278 16.2503C14.7201 16.7812 14.2786 17.222 13.7473 17.529C13.216 17.836 12.6136 17.9984 12 18Z" stroke="#0E5C36" stroke-width="0.6"/>
<path d="M14 3V7C14 7.26522 14.1054 7.51957 14.2929 7.70711C14.4804 7.89464 14.7348 8 15 8H19" stroke="black" stroke-width="2" stroke-linecap="round" stroke-linejoin="round"/>
<path d="M14 3V7C14 7.26522 14.1054 7.51957 14.2929 7.70711C14.4804 7.89464 14.7348 8 15 8H19" stroke="#0E5C36" stroke-width="2" stroke-linecap="round" stroke-linejoin="round"/>
<path d="M17 21H7C6.46957 21 5.96086 20.7893 5.58579 20.4142C5.21071 20.0391 5 19.5304 5 19V5C5 4.46957 5.21071 3.96086 5.58579 3.58579C5.96086 3.21071 6.46957 3 7 3H14L19 8V19C19 19.5304 18.7893 20.0391 18.4142 20.4142C18.0391 20.7893 17.5304 21 17 21Z" stroke="black" stroke-width="2" stroke-linecap="round" stroke-linejoin="round"/>
<path d="M17 21H7C6.46957 21 5.96086 20.7893 5.58579 20.4142C5.21071 20.0391 5 19.5304 5 19V5C5 4.46957 5.21071 3.96086 5.58579 3.58579C5.96086 3.21071 6.46957 3 7 3H14L19 8V19C19 19.5304 18.7893 20.0391 18.4142 20.4142C18.0391 20.7893 17.5304 21 17 21Z" stroke="#0E5C36" stroke-width="2" stroke-linecap="round" stroke-linejoin="round"/>
</svg>
