<svg width="24" height="24" viewBox="0 0 24 24" fill="none" xmlns="http://www.w3.org/2000/svg">
<path d="M7.93359 7.93359V2.56641H2.56641V7.93359H7.93359ZM3.93359 3.93359H6.5957L6.5918 4.00391L6.5166 5.17969L6.44141 6.37891L6.4375 6.4375L6.37891 6.44141L5.2041 6.5166L4.00391 6.5918L3.93359 6.5957V3.93359Z" fill="#E67D13"/>
<path d="M7.93359 7.93359V2.56641H2.56641V7.93359H7.93359ZM3.93359 3.93359H6.5957L6.5918 4.00391L6.5166 5.17969L6.44141 6.37891L6.4375 6.4375L6.37891 6.44141L5.2041 6.5166L4.00391 6.5918L3.93359 6.5957V3.93359Z" fill="white"/>
<path d="M7.93359 7.93359V2.56641H2.56641V7.93359H7.93359ZM3.93359 3.93359H6.5957L6.5918 4.00391L6.5166 5.17969L6.44141 6.37891L6.4375 6.4375L6.37891 6.44141L5.2041 6.5166L4.00391 6.5918L3.93359 6.5957V3.93359Z" fill="#0E5C36"/>
<path d="M7.93359 7.93359V2.56641H2.56641V7.93359H7.93359ZM3.93359 3.93359H6.5957L6.5918 4.00391L6.5166 5.17969L6.44141 6.37891L6.4375 6.4375L6.37891 6.44141L5.2041 6.5166L4.00391 6.5918L3.93359 6.5957V3.93359Z" stroke="#E67D13" stroke-width="0.133333"/>
<path d="M7.93359 7.93359V2.56641H2.56641V7.93359H7.93359ZM3.93359 3.93359H6.5957L6.5918 4.00391L6.5166 5.17969L6.44141 6.37891L6.4375 6.4375L6.37891 6.44141L5.2041 6.5166L4.00391 6.5918L3.93359 6.5957V3.93359Z" stroke="white" stroke-width="0.133333"/>
<path d="M7.93359 7.93359V2.56641H2.56641V7.93359H7.93359ZM3.93359 3.93359H6.5957L6.5918 4.00391L6.5166 5.17969L6.44141 6.37891L6.4375 6.4375L6.37891 6.44141L5.2041 6.5166L4.00391 6.5918L3.93359 6.5957V3.93359Z" stroke="#0E5C36" stroke-width="0.133333"/>
<path d="M14.4336 7.93359V2.56641H9.56641V3.93359H12.8164V7.93359H14.4336Z" fill="#E67D13"/>
<path d="M14.4336 7.93359V2.56641H9.56641V3.93359H12.8164V7.93359H14.4336Z" fill="white"/>
<path d="M14.4336 7.93359V2.56641H9.56641V3.93359H12.8164V7.93359H14.4336Z" fill="#0E5C36"/>
<path d="M14.4336 7.93359V2.56641H9.56641V3.93359H12.8164V7.93359H14.4336Z" stroke="#E67D13" stroke-width="0.133333"/>
<path d="M14.4336 7.93359V2.56641H9.56641V3.93359H12.8164V7.93359H14.4336Z" stroke="white" stroke-width="0.133333"/>
<path d="M14.4336 7.93359V2.56641H9.56641V3.93359H12.8164V7.93359H14.4336Z" stroke="#0E5C36" stroke-width="0.133333"/>
<path d="M21.4336 7.93359V2.56641H16.0664V7.93359H21.4336ZM19.9961 6.5918L18.8203 6.5166L17.6211 6.44141L17.5625 6.4375L17.5586 6.37891L17.4834 5.17969L17.4082 4.00391L17.4043 3.93359H20.0664V6.5957L19.9961 6.5918Z" fill="#E67D13"/>
<path d="M21.4336 7.93359V2.56641H16.0664V7.93359H21.4336ZM19.9961 6.5918L18.8203 6.5166L17.6211 6.44141L17.5625 6.4375L17.5586 6.37891L17.4834 5.17969L17.4082 4.00391L17.4043 3.93359H20.0664V6.5957L19.9961 6.5918Z" fill="white"/>
<path d="M21.4336 7.93359V2.56641H16.0664V7.93359H21.4336ZM19.9961 6.5918L18.8203 6.5166L17.6211 6.44141L17.5625 6.4375L17.5586 6.37891L17.4834 5.17969L17.4082 4.00391L17.4043 3.93359H20.0664V6.5957L19.9961 6.5918Z" fill="#0E5C36"/>
<path d="M21.4336 7.93359V2.56641H16.0664V7.93359H21.4336ZM19.9961 6.5918L18.8203 6.5166L17.6211 6.44141L17.5625 6.4375L17.5586 6.37891L17.4834 5.17969L17.4082 4.00391L17.4043 3.93359H20.0664V6.5957L19.9961 6.5918Z" stroke="#E67D13" stroke-width="0.133333"/>
<path d="M21.4336 7.93359V2.56641H16.0664V7.93359H21.4336ZM19.9961 6.5918L18.8203 6.5166L17.6211 6.44141L17.5625 6.4375L17.5586 6.37891L17.4834 5.17969L17.4082 4.00391L17.4043 3.93359H20.0664V6.5957L19.9961 6.5918Z" stroke="white" stroke-width="0.133333"/>
<path d="M21.4336 7.93359V2.56641H16.0664V7.93359H21.4336ZM19.9961 6.5918L18.8203 6.5166L17.6211 6.44141L17.5625 6.4375L17.5586 6.37891L17.4834 5.17969L17.4082 4.00391L17.4043 3.93359H20.0664V6.5957L19.9961 6.5918Z" stroke="#0E5C36" stroke-width="0.133333"/>
<path d="M3.93359 14.4336V11.1836H11.1836V5.56641H10.5498C10.3538 5.56642 10.1584 5.58499 10.0039 5.61523C9.92654 5.6304 9.86088 5.64881 9.81152 5.66797C9.75937 5.68823 9.7355 5.70572 9.72852 5.71484L9.72266 5.72266L9.71484 5.72852V5.73047C9.71132 5.73686 9.70716 5.74721 9.70215 5.76172C9.69201 5.7912 9.68117 5.83365 9.6709 5.8877C9.65044 5.99536 9.63174 6.14418 9.61621 6.32422C9.58517 6.6843 9.56641 7.16376 9.56641 7.6748V9.56641H2.56641V14.4336H3.93359Z" fill="#E67D13"/>
<path d="M3.93359 14.4336V11.1836H11.1836V5.56641H10.5498C10.3538 5.56642 10.1584 5.58499 10.0039 5.61523C9.92654 5.6304 9.86088 5.64881 9.81152 5.66797C9.75937 5.68823 9.7355 5.70572 9.72852 5.71484L9.72266 5.72266L9.71484 5.72852V5.73047C9.71132 5.73686 9.70716 5.74721 9.70215 5.76172C9.69201 5.7912 9.68117 5.83365 9.6709 5.8877C9.65044 5.99536 9.63174 6.14418 9.61621 6.32422C9.58517 6.6843 9.56641 7.16376 9.56641 7.6748V9.56641H2.56641V14.4336H3.93359Z" fill="white"/>
<path d="M3.93359 14.4336V11.1836H11.1836V5.56641H10.5498C10.3538 5.56642 10.1584 5.58499 10.0039 5.61523C9.92654 5.6304 9.86088 5.64881 9.81152 5.66797C9.75937 5.68823 9.7355 5.70572 9.72852 5.71484L9.72266 5.72266L9.71484 5.72852V5.73047C9.71132 5.73686 9.70716 5.74721 9.70215 5.76172C9.69201 5.7912 9.68117 5.83365 9.6709 5.8877C9.65044 5.99536 9.63174 6.14418 9.61621 6.32422C9.58517 6.6843 9.56641 7.16376 9.56641 7.6748V9.56641H2.56641V14.4336H3.93359Z" fill="#0E5C36"/>
<path d="M3.93359 14.4336V11.1836H11.1836V5.56641H10.5498C10.3538 5.56642 10.1584 5.58499 10.0039 5.61523C9.92654 5.6304 9.86088 5.64881 9.81152 5.66797C9.75937 5.68823 9.7355 5.70572 9.72852 5.71484L9.72266 5.72266L9.71484 5.72852V5.73047C9.71132 5.73686 9.70716 5.74721 9.70215 5.76172C9.69201 5.7912 9.68117 5.83365 9.6709 5.8877C9.65044 5.99536 9.63174 6.14418 9.61621 6.32422C9.58517 6.6843 9.56641 7.16376 9.56641 7.6748V9.56641H2.56641V14.4336H3.93359Z" stroke="#E67D13" stroke-width="0.133333"/>
<path d="M3.93359 14.4336V11.1836H11.1836V5.56641H10.5498C10.3538 5.56642 10.1584 5.58499 10.0039 5.61523C9.92654 5.6304 9.86088 5.64881 9.81152 5.66797C9.75937 5.68823 9.7355 5.70572 9.72852 5.71484L9.72266 5.72266L9.71484 5.72852V5.73047C9.71132 5.73686 9.70716 5.74721 9.70215 5.76172C9.69201 5.7912 9.68117 5.83365 9.6709 5.8877C9.65044 5.99536 9.63174 6.14418 9.61621 6.32422C9.58517 6.6843 9.56641 7.16376 9.56641 7.6748V9.56641H2.56641V14.4336H3.93359Z" stroke="white" stroke-width="0.133333"/>
<path d="M3.93359 14.4336V11.1836H11.1836V5.56641H10.5498C10.3538 5.56642 10.1584 5.58499 10.0039 5.61523C9.92654 5.6304 9.86088 5.64881 9.81152 5.66797C9.75937 5.68823 9.7355 5.70572 9.72852 5.71484L9.72266 5.72266L9.71484 5.72852V5.73047C9.71132 5.73686 9.70716 5.74721 9.70215 5.76172C9.69201 5.7912 9.68117 5.83365 9.6709 5.8877C9.65044 5.99536 9.63174 6.14418 9.61621 6.32422C9.58517 6.6843 9.56641 7.16376 9.56641 7.6748V9.56641H2.56641V14.4336H3.93359Z" stroke="#0E5C36" stroke-width="0.133333"/>
<path d="M13.625 12.6836C13.8254 12.6836 13.9762 12.68 14.0908 12.665C14.2054 12.65 14.2745 12.6245 14.3193 12.5869C14.3625 12.5505 14.3922 12.4951 14.4102 12.4004C14.4284 12.3042 14.4336 12.1753 14.4336 12V11.1836H18.4521L18.3838 10.4316L18.3135 9.69043L15.5732 9.61621L12.8164 9.54395V12.6836H13.625Z" fill="#E67D13"/>
<path d="M13.625 12.6836C13.8254 12.6836 13.9762 12.68 14.0908 12.665C14.2054 12.65 14.2745 12.6245 14.3193 12.5869C14.3625 12.5505 14.3922 12.4951 14.4102 12.4004C14.4284 12.3042 14.4336 12.1753 14.4336 12V11.1836H18.4521L18.3838 10.4316L18.3135 9.69043L15.5732 9.61621L12.8164 9.54395V12.6836H13.625Z" fill="white"/>
<path d="M13.625 12.6836C13.8254 12.6836 13.9762 12.68 14.0908 12.665C14.2054 12.65 14.2745 12.6245 14.3193 12.5869C14.3625 12.5505 14.3922 12.4951 14.4102 12.4004C14.4284 12.3042 14.4336 12.1753 14.4336 12V11.1836H18.4521L18.3838 10.4316L18.3135 9.69043L15.5732 9.61621L12.8164 9.54395V12.6836H13.625Z" fill="#0E5C36"/>
<path d="M13.625 12.6836C13.8254 12.6836 13.9762 12.68 14.0908 12.665C14.2054 12.65 14.2745 12.6245 14.3193 12.5869C14.3625 12.5505 14.3922 12.4951 14.4102 12.4004C14.4284 12.3042 14.4336 12.1753 14.4336 12V11.1836H18.4521L18.3838 10.4316L18.3135 9.69043L15.5732 9.61621L12.8164 9.54395V12.6836H13.625Z" stroke="#E67D13" stroke-width="0.133333"/>
<path d="M13.625 12.6836C13.8254 12.6836 13.9762 12.68 14.0908 12.665C14.2054 12.65 14.2745 12.6245 14.3193 12.5869C14.3625 12.5505 14.3922 12.4951 14.4102 12.4004C14.4284 12.3042 14.4336 12.1753 14.4336 12V11.1836H18.4521L18.3838 10.4316L18.3135 9.69043L15.5732 9.61621L12.8164 9.54395V12.6836H13.625Z" stroke="white" stroke-width="0.133333"/>
<path d="M13.625 12.6836C13.8254 12.6836 13.9762 12.68 14.0908 12.665C14.2054 12.65 14.2745 12.6245 14.3193 12.5869C14.3625 12.5505 14.3922 12.4951 14.4102 12.4004C14.4284 12.3042 14.4336 12.1753 14.4336 12V11.1836H18.4521L18.3838 10.4316L18.3135 9.69043L15.5732 9.61621L12.8164 9.54395V12.6836H13.625Z" stroke="#0E5C36" stroke-width="0.133333"/>
<path d="M21.4336 12.6836V9.56641H20.0664V12.6836H21.4336Z" fill="#E67D13"/>
<path d="M21.4336 12.6836V9.56641H20.0664V12.6836H21.4336Z" fill="white"/>
<path d="M21.4336 12.6836V9.56641H20.0664V12.6836H21.4336Z" fill="#0E5C36"/>
<path d="M21.4336 12.6836V9.56641H20.0664V12.6836H21.4336Z" stroke="#E67D13" stroke-width="0.133333"/>
<path d="M21.4336 12.6836V9.56641H20.0664V12.6836H21.4336Z" stroke="white" stroke-width="0.133333"/>
<path d="M21.4336 12.6836V9.56641H20.0664V12.6836H21.4336Z" stroke="#0E5C36" stroke-width="0.133333"/>
<path d="M11.1831 12.8174H5.54834L5.6167 13.5439L5.68604 14.3105L8.45166 14.3838L11.1831 14.458V12.8174Z" fill="#E67D13"/>
<path d="M11.1831 12.8174H5.54834L5.6167 13.5439L5.68604 14.3105L8.45166 14.3838L11.1831 14.458V12.8174Z" fill="white"/>
<path d="M11.1831 12.8174H5.54834L5.6167 13.5439L5.68604 14.3105L8.45166 14.3838L11.1831 14.458V12.8174Z" fill="#0E5C36"/>
<path d="M11.1831 12.8174H5.54834L5.6167 13.5439L5.68604 14.3105L8.45166 14.3838L11.1831 14.458V12.8174Z" stroke="#E67D13" stroke-width="0.133333"/>
<path d="M11.1831 12.8174H5.54834L5.6167 13.5439L5.68604 14.3105L8.45166 14.3838L11.1831 14.458V12.8174Z" stroke="white" stroke-width="0.133333"/>
<path d="M11.1831 12.8174H5.54834L5.6167 13.5439L5.68604 14.3105L8.45166 14.3838L11.1831 14.458V12.8174Z" stroke="#0E5C36" stroke-width="0.133333"/>
<path d="M17.625 21.4336C18.7723 21.4336 19.7228 21.0507 20.3867 20.3838C21.0506 19.7168 21.4336 18.7596 21.4336 17.5996C21.4334 15.0751 19.1498 13.2676 16.751 13.8047L16.5186 13.8643C15.5753 14.1337 14.7691 14.8334 14.2637 15.6963C13.7897 16.5056 13.5839 17.4516 13.7715 18.3115L13.8145 18.4814C14.0864 19.4455 14.5538 20.1829 15.1934 20.6787C15.8329 21.1744 16.6496 21.4336 17.625 21.4336ZM17.2021 19.4219L16.1533 18.3477C15.9035 18.1041 15.7115 17.9133 15.5713 17.7588C15.4321 17.6055 15.3388 17.4824 15.292 17.373C15.2429 17.2585 15.2442 17.1575 15.293 17.0576C15.3382 16.9652 15.423 16.8776 15.5273 16.7793V16.7783C15.6267 16.679 15.7099 16.5996 15.7871 16.5498C15.8671 16.4983 15.9471 16.4739 16.0371 16.4902C16.1222 16.5058 16.2077 16.5571 16.3047 16.6318C16.3537 16.6696 16.4074 16.7153 16.4678 16.7686L16.6699 16.9512L17.2725 17.5078L18.127 16.6289L18.1279 16.627C18.3464 16.4147 18.5175 16.2525 18.6562 16.1348C18.7939 16.018 18.9064 15.9404 19.0088 15.9033C19.1162 15.8645 19.2107 15.8708 19.3066 15.915C19.3519 15.9359 19.3971 15.9654 19.4443 16.001L19.5938 16.125C19.7042 16.2231 19.799 16.3118 19.8457 16.4102C19.8964 16.5172 19.8881 16.6277 19.8223 16.7578C19.7583 16.8841 19.6365 17.0365 19.4512 17.2363C19.358 17.3368 19.2476 17.451 19.1182 17.5811L18.6719 18.0225L17.2979 19.4219L17.25 19.4707L17.2021 19.4219Z" fill="#E67D13"/>
<path d="M17.625 21.4336C18.7723 21.4336 19.7228 21.0507 20.3867 20.3838C21.0506 19.7168 21.4336 18.7596 21.4336 17.5996C21.4334 15.0751 19.1498 13.2676 16.751 13.8047L16.5186 13.8643C15.5753 14.1337 14.7691 14.8334 14.2637 15.6963C13.7897 16.5056 13.5839 17.4516 13.7715 18.3115L13.8145 18.4814C14.0864 19.4455 14.5538 20.1829 15.1934 20.6787C15.8329 21.1744 16.6496 21.4336 17.625 21.4336ZM17.2021 19.4219L16.1533 18.3477C15.9035 18.1041 15.7115 17.9133 15.5713 17.7588C15.4321 17.6055 15.3388 17.4824 15.292 17.373C15.2429 17.2585 15.2442 17.1575 15.293 17.0576C15.3382 16.9652 15.423 16.8776 15.5273 16.7793V16.7783C15.6267 16.679 15.7099 16.5996 15.7871 16.5498C15.8671 16.4983 15.9471 16.4739 16.0371 16.4902C16.1222 16.5058 16.2077 16.5571 16.3047 16.6318C16.3537 16.6696 16.4074 16.7153 16.4678 16.7686L16.6699 16.9512L17.2725 17.5078L18.127 16.6289L18.1279 16.627C18.3464 16.4147 18.5175 16.2525 18.6562 16.1348C18.7939 16.018 18.9064 15.9404 19.0088 15.9033C19.1162 15.8645 19.2107 15.8708 19.3066 15.915C19.3519 15.9359 19.3971 15.9654 19.4443 16.001L19.5938 16.125C19.7042 16.2231 19.799 16.3118 19.8457 16.4102C19.8964 16.5172 19.8881 16.6277 19.8223 16.7578C19.7583 16.8841 19.6365 17.0365 19.4512 17.2363C19.358 17.3368 19.2476 17.451 19.1182 17.5811L18.6719 18.0225L17.2979 19.4219L17.25 19.4707L17.2021 19.4219Z" fill="white"/>
<path d="M17.625 21.4336C18.7723 21.4336 19.7228 21.0507 20.3867 20.3838C21.0506 19.7168 21.4336 18.7596 21.4336 17.5996C21.4334 15.0751 19.1498 13.2676 16.751 13.8047L16.5186 13.8643C15.5753 14.1337 14.7691 14.8334 14.2637 15.6963C13.7897 16.5056 13.5839 17.4516 13.7715 18.3115L13.8145 18.4814C14.0864 19.4455 14.5538 20.1829 15.1934 20.6787C15.8329 21.1744 16.6496 21.4336 17.625 21.4336ZM17.2021 19.4219L16.1533 18.3477C15.9035 18.1041 15.7115 17.9133 15.5713 17.7588C15.4321 17.6055 15.3388 17.4824 15.292 17.373C15.2429 17.2585 15.2442 17.1575 15.293 17.0576C15.3382 16.9652 15.423 16.8776 15.5273 16.7793V16.7783C15.6267 16.679 15.7099 16.5996 15.7871 16.5498C15.8671 16.4983 15.9471 16.4739 16.0371 16.4902C16.1222 16.5058 16.2077 16.5571 16.3047 16.6318C16.3537 16.6696 16.4074 16.7153 16.4678 16.7686L16.6699 16.9512L17.2725 17.5078L18.127 16.6289L18.1279 16.627C18.3464 16.4147 18.5175 16.2525 18.6562 16.1348C18.7939 16.018 18.9064 15.9404 19.0088 15.9033C19.1162 15.8645 19.2107 15.8708 19.3066 15.915C19.3519 15.9359 19.3971 15.9654 19.4443 16.001L19.5938 16.125C19.7042 16.2231 19.799 16.3118 19.8457 16.4102C19.8964 16.5172 19.8881 16.6277 19.8223 16.7578C19.7583 16.8841 19.6365 17.0365 19.4512 17.2363C19.358 17.3368 19.2476 17.451 19.1182 17.5811L18.6719 18.0225L17.2979 19.4219L17.25 19.4707L17.2021 19.4219Z" fill="#0E5C36"/>
<path d="M17.625 21.4336C18.7723 21.4336 19.7228 21.0507 20.3867 20.3838C21.0506 19.7168 21.4336 18.7596 21.4336 17.5996C21.4334 15.0751 19.1498 13.2676 16.751 13.8047L16.5186 13.8643C15.5753 14.1337 14.7691 14.8334 14.2637 15.6963C13.7897 16.5056 13.5839 17.4516 13.7715 18.3115L13.8145 18.4814C14.0864 19.4455 14.5538 20.1829 15.1934 20.6787C15.8329 21.1744 16.6496 21.4336 17.625 21.4336ZM17.2021 19.4219L16.1533 18.3477C15.9035 18.1041 15.7115 17.9133 15.5713 17.7588C15.4321 17.6055 15.3388 17.4824 15.292 17.373C15.2429 17.2585 15.2442 17.1575 15.293 17.0576C15.3382 16.9652 15.423 16.8776 15.5273 16.7793V16.7783C15.6267 16.679 15.7099 16.5996 15.7871 16.5498C15.8671 16.4983 15.9471 16.4739 16.0371 16.4902C16.1222 16.5058 16.2077 16.5571 16.3047 16.6318C16.3537 16.6696 16.4074 16.7153 16.4678 16.7686L16.6699 16.9512L17.2725 17.5078L18.127 16.6289L18.1279 16.627C18.3464 16.4147 18.5175 16.2525 18.6562 16.1348C18.7939 16.018 18.9064 15.9404 19.0088 15.9033C19.1162 15.8645 19.2107 15.8708 19.3066 15.915C19.3519 15.9359 19.3971 15.9654 19.4443 16.001L19.5938 16.125C19.7042 16.2231 19.799 16.3118 19.8457 16.4102C19.8964 16.5172 19.8881 16.6277 19.8223 16.7578C19.7583 16.8841 19.6365 17.0365 19.4512 17.2363C19.358 17.3368 19.2476 17.451 19.1182 17.5811L18.6719 18.0225L17.2979 19.4219L17.25 19.4707L17.2021 19.4219Z" stroke="#E67D13" stroke-width="0.133333"/>
<path d="M17.625 21.4336C18.7723 21.4336 19.7228 21.0507 20.3867 20.3838C21.0506 19.7168 21.4336 18.7596 21.4336 17.5996C21.4334 15.0751 19.1498 13.2676 16.751 13.8047L16.5186 13.8643C15.5753 14.1337 14.7691 14.8334 14.2637 15.6963C13.7897 16.5056 13.5839 17.4516 13.7715 18.3115L13.8145 18.4814C14.0864 19.4455 14.5538 20.1829 15.1934 20.6787C15.8329 21.1744 16.6496 21.4336 17.625 21.4336ZM17.2021 19.4219L16.1533 18.3477C15.9035 18.1041 15.7115 17.9133 15.5713 17.7588C15.4321 17.6055 15.3388 17.4824 15.292 17.373C15.2429 17.2585 15.2442 17.1575 15.293 17.0576C15.3382 16.9652 15.423 16.8776 15.5273 16.7793V16.7783C15.6267 16.679 15.7099 16.5996 15.7871 16.5498C15.8671 16.4983 15.9471 16.4739 16.0371 16.4902C16.1222 16.5058 16.2077 16.5571 16.3047 16.6318C16.3537 16.6696 16.4074 16.7153 16.4678 16.7686L16.6699 16.9512L17.2725 17.5078L18.127 16.6289L18.1279 16.627C18.3464 16.4147 18.5175 16.2525 18.6562 16.1348C18.7939 16.018 18.9064 15.9404 19.0088 15.9033C19.1162 15.8645 19.2107 15.8708 19.3066 15.915C19.3519 15.9359 19.3971 15.9654 19.4443 16.001L19.5938 16.125C19.7042 16.2231 19.799 16.3118 19.8457 16.4102C19.8964 16.5172 19.8881 16.6277 19.8223 16.7578C19.7583 16.8841 19.6365 17.0365 19.4512 17.2363C19.358 17.3368 19.2476 17.451 19.1182 17.5811L18.6719 18.0225L17.2979 19.4219L17.25 19.4707L17.2021 19.4219Z" stroke="white" stroke-width="0.133333"/>
<path d="M17.625 21.4336C18.7723 21.4336 19.7228 21.0507 20.3867 20.3838C21.0506 19.7168 21.4336 18.7596 21.4336 17.5996C21.4334 15.0751 19.1498 13.2676 16.751 13.8047L16.5186 13.8643C15.5753 14.1337 14.7691 14.8334 14.2637 15.6963C13.7897 16.5056 13.5839 17.4516 13.7715 18.3115L13.8145 18.4814C14.0864 19.4455 14.5538 20.1829 15.1934 20.6787C15.8329 21.1744 16.6496 21.4336 17.625 21.4336ZM17.2021 19.4219L16.1533 18.3477C15.9035 18.1041 15.7115 17.9133 15.5713 17.7588C15.4321 17.6055 15.3388 17.4824 15.292 17.373C15.2429 17.2585 15.2442 17.1575 15.293 17.0576C15.3382 16.9652 15.423 16.8776 15.5273 16.7793V16.7783C15.6267 16.679 15.7099 16.5996 15.7871 16.5498C15.8671 16.4983 15.9471 16.4739 16.0371 16.4902C16.1222 16.5058 16.2077 16.5571 16.3047 16.6318C16.3537 16.6696 16.4074 16.7153 16.4678 16.7686L16.6699 16.9512L17.2725 17.5078L18.127 16.6289L18.1279 16.627C18.3464 16.4147 18.5175 16.2525 18.6562 16.1348C18.7939 16.018 18.9064 15.9404 19.0088 15.9033C19.1162 15.8645 19.2107 15.8708 19.3066 15.915C19.3519 15.9359 19.3971 15.9654 19.4443 16.001L19.5938 16.125C19.7042 16.2231 19.799 16.3118 19.8457 16.4102C19.8964 16.5172 19.8881 16.6277 19.8223 16.7578C19.7583 16.8841 19.6365 17.0365 19.4512 17.2363C19.358 17.3368 19.2476 17.451 19.1182 17.5811L18.6719 18.0225L17.2979 19.4219L17.25 19.4707L17.2021 19.4219Z" stroke="#0E5C36" stroke-width="0.133333"/>
<path d="M7.93359 21.4336V16.0664H2.56641V21.4336H7.93359ZM3.93359 17.4043L4.00391 17.4082L5.2041 17.4834L6.37891 17.5586L6.4375 17.5625L6.44141 17.6211L6.5166 18.7959L6.5918 19.9961L6.5957 20.0664H3.93359V17.4043Z" fill="#E67D13"/>
<path d="M7.93359 21.4336V16.0664H2.56641V21.4336H7.93359ZM3.93359 17.4043L4.00391 17.4082L5.2041 17.4834L6.37891 17.5586L6.4375 17.5625L6.44141 17.6211L6.5166 18.7959L6.5918 19.9961L6.5957 20.0664H3.93359V17.4043Z" fill="white"/>
<path d="M7.93359 21.4336V16.0664H2.56641V21.4336H7.93359ZM3.93359 17.4043L4.00391 17.4082L5.2041 17.4834L6.37891 17.5586L6.4375 17.5625L6.44141 17.6211L6.5166 18.7959L6.5918 19.9961L6.5957 20.0664H3.93359V17.4043Z" fill="#0E5C36"/>
<path d="M7.93359 21.4336V16.0664H2.56641V21.4336H7.93359ZM3.93359 17.4043L4.00391 17.4082L5.2041 17.4834L6.37891 17.5586L6.4375 17.5625L6.44141 17.6211L6.5166 18.7959L6.5918 19.9961L6.5957 20.0664H3.93359V17.4043Z" stroke="#E67D13" stroke-width="0.133333"/>
<path d="M7.93359 21.4336V16.0664H2.56641V21.4336H7.93359ZM3.93359 17.4043L4.00391 17.4082L5.2041 17.4834L6.37891 17.5586L6.4375 17.5625L6.44141 17.6211L6.5166 18.7959L6.5918 19.9961L6.5957 20.0664H3.93359V17.4043Z" stroke="white" stroke-width="0.133333"/>
<path d="M7.93359 21.4336V16.0664H2.56641V21.4336H7.93359ZM3.93359 17.4043L4.00391 17.4082L5.2041 17.4834L6.37891 17.5586L6.4375 17.5625L6.44141 17.6211L6.5166 18.7959L6.5918 19.9961L6.5957 20.0664H3.93359V17.4043Z" stroke="#0E5C36" stroke-width="0.133333"/>
<path d="M12.6836 21.4336V20.75C12.6836 20.5813 12.6786 20.4551 12.6621 20.3594C12.6457 20.2641 12.6189 20.2068 12.5811 20.1689C12.5432 20.1311 12.4859 20.1043 12.3906 20.0879C12.2949 20.0714 12.1687 20.0664 12 20.0664H11.1836V16.0664H9.56641V21.4336H12.6836Z" fill="#E67D13"/>
<path d="M12.6836 21.4336V20.75C12.6836 20.5813 12.6786 20.4551 12.6621 20.3594C12.6457 20.2641 12.6189 20.2068 12.5811 20.1689C12.5432 20.1311 12.4859 20.1043 12.3906 20.0879C12.2949 20.0714 12.1687 20.0664 12 20.0664H11.1836V16.0664H9.56641V21.4336H12.6836Z" fill="white"/>
<path d="M12.6836 21.4336V20.75C12.6836 20.5813 12.6786 20.4551 12.6621 20.3594C12.6457 20.2641 12.6189 20.2068 12.5811 20.1689C12.5432 20.1311 12.4859 20.1043 12.3906 20.0879C12.2949 20.0714 12.1687 20.0664 12 20.0664H11.1836V16.0664H9.56641V21.4336H12.6836Z" fill="#0E5C36"/>
<path d="M12.6836 21.4336V20.75C12.6836 20.5813 12.6786 20.4551 12.6621 20.3594C12.6457 20.2641 12.6189 20.2068 12.5811 20.1689C12.5432 20.1311 12.4859 20.1043 12.3906 20.0879C12.2949 20.0714 12.1687 20.0664 12 20.0664H11.1836V16.0664H9.56641V21.4336H12.6836Z" stroke="#E67D13" stroke-width="0.133333"/>
<path d="M12.6836 21.4336V20.75C12.6836 20.5813 12.6786 20.4551 12.6621 20.3594C12.6457 20.2641 12.6189 20.2068 12.5811 20.1689C12.5432 20.1311 12.4859 20.1043 12.3906 20.0879C12.2949 20.0714 12.1687 20.0664 12 20.0664H11.1836V16.0664H9.56641V21.4336H12.6836Z" stroke="white" stroke-width="0.133333"/>
<path d="M12.6836 21.4336V20.75C12.6836 20.5813 12.6786 20.4551 12.6621 20.3594C12.6457 20.2641 12.6189 20.2068 12.5811 20.1689C12.5432 20.1311 12.4859 20.1043 12.3906 20.0879C12.2949 20.0714 12.1687 20.0664 12 20.0664H11.1836V16.0664H9.56641V21.4336H12.6836Z" stroke="#0E5C36" stroke-width="0.133333"/>
</svg>
