<svg width="24" height="24" viewBox="0 0 24 24" fill="none" xmlns="http://www.w3.org/2000/svg">
<path d="M13.26 2.99976C12.0565 2.96539 10.8584 3.17277 9.73642 3.60961C8.61449 4.04645 7.59157 4.70389 6.7282 5.54302C5.86482 6.38216 5.17853 7.38594 4.70992 8.49498C4.24131 9.60402 3.99991 10.7958 4 11.9998H2.21C1.76 11.9998 1.54 12.5398 1.86 12.8498L4.65 15.6398C4.85 15.8398 5.16 15.8398 5.36 15.6398L8.16 12.8498C8.46 12.5398 8.24 11.9998 7.79 11.9998H6C6 8.10976 9.2 4.93976 13.1 4.99976C16.81 5.04976 19.94 8.17976 20 11.8998C20.06 15.8098 16.9 18.9998 13 18.9998C11.41 18.9998 9.95 18.4698 8.77 17.5698C8.37 17.2698 7.81 17.2998 7.46 17.6598C7.03 18.0898 7.07 18.7998 7.55 19.1598C9.11542 20.3548 11.0306 21.0013 13 20.9998C18.06 20.9998 22.14 16.8298 22 11.7498C21.87 7.04976 17.95 3.12976 13.26 2.99976ZM15 10.9998V9.99976C15 8.89976 14.1 7.99976 13 7.99976C11.9 7.99976 11 8.89976 11 9.99976V10.9998C10.45 10.9998 10 11.4498 10 11.9998V14.9998C10 15.5498 10.45 15.9998 11 15.9998H15C15.55 15.9998 16 15.5498 16 14.9998V11.9998C16 11.4498 15.55 10.9998 15 10.9998ZM14 10.9998H12V9.99976C12 9.44976 12.45 8.99976 13 8.99976C13.55 8.99976 14 9.44976 14 9.99976V10.9998Z" fill="black"/>
<path d="M13.26 2.99976C12.0565 2.96539 10.8584 3.17277 9.73642 3.60961C8.61449 4.04645 7.59157 4.70389 6.7282 5.54302C5.86482 6.38216 5.17853 7.38594 4.70992 8.49498C4.24131 9.60402 3.99991 10.7958 4 11.9998H2.21C1.76 11.9998 1.54 12.5398 1.86 12.8498L4.65 15.6398C4.85 15.8398 5.16 15.8398 5.36 15.6398L8.16 12.8498C8.46 12.5398 8.24 11.9998 7.79 11.9998H6C6 8.10976 9.2 4.93976 13.1 4.99976C16.81 5.04976 19.94 8.17976 20 11.8998C20.06 15.8098 16.9 18.9998 13 18.9998C11.41 18.9998 9.95 18.4698 8.77 17.5698C8.37 17.2698 7.81 17.2998 7.46 17.6598C7.03 18.0898 7.07 18.7998 7.55 19.1598C9.11542 20.3548 11.0306 21.0013 13 20.9998C18.06 20.9998 22.14 16.8298 22 11.7498C21.87 7.04976 17.95 3.12976 13.26 2.99976ZM15 10.9998V9.99976C15 8.89976 14.1 7.99976 13 7.99976C11.9 7.99976 11 8.89976 11 9.99976V10.9998C10.45 10.9998 10 11.4498 10 11.9998V14.9998C10 15.5498 10.45 15.9998 11 15.9998H15C15.55 15.9998 16 15.5498 16 14.9998V11.9998C16 11.4498 15.55 10.9998 15 10.9998ZM14 10.9998H12V9.99976C12 9.44976 12.45 8.99976 13 8.99976C13.55 8.99976 14 9.44976 14 9.99976V10.9998Z" fill="#0E5C36"/>
<path d="M13.26 2.99976C12.0565 2.96539 10.8584 3.17277 9.73642 3.60961C8.61449 4.04645 7.59157 4.70389 6.7282 5.54302C5.86482 6.38216 5.17853 7.38594 4.70992 8.49498C4.24131 9.60402 3.99991 10.7958 4 11.9998H2.21C1.76 11.9998 1.54 12.5398 1.86 12.8498L4.65 15.6398C4.85 15.8398 5.16 15.8398 5.36 15.6398L8.16 12.8498C8.46 12.5398 8.24 11.9998 7.79 11.9998H6C6 8.10976 9.2 4.93976 13.1 4.99976C16.81 5.04976 19.94 8.17976 20 11.8998C20.06 15.8098 16.9 18.9998 13 18.9998C11.41 18.9998 9.95 18.4698 8.77 17.5698C8.37 17.2698 7.81 17.2998 7.46 17.6598C7.03 18.0898 7.07 18.7998 7.55 19.1598C9.11542 20.3548 11.0306 21.0013 13 20.9998C18.06 20.9998 22.14 16.8298 22 11.7498C21.87 7.04976 17.95 3.12976 13.26 2.99976ZM15 10.9998V9.99976C15 8.89976 14.1 7.99976 13 7.99976C11.9 7.99976 11 8.89976 11 9.99976V10.9998C10.45 10.9998 10 11.4498 10 11.9998V14.9998C10 15.5498 10.45 15.9998 11 15.9998H15C15.55 15.9998 16 15.5498 16 14.9998V11.9998C16 11.4498 15.55 10.9998 15 10.9998ZM14 10.9998H12V9.99976C12 9.44976 12.45 8.99976 13 8.99976C13.55 8.99976 14 9.44976 14 9.99976V10.9998Z" fill="white"/>
<path d="M13.26 2.99976C12.0565 2.96539 10.8584 3.17277 9.73642 3.60961C8.61449 4.04645 7.59157 4.70389 6.7282 5.54302C5.86482 6.38216 5.17853 7.38594 4.70992 8.49498C4.24131 9.60402 3.99991 10.7958 4 11.9998H2.21C1.76 11.9998 1.54 12.5398 1.86 12.8498L4.65 15.6398C4.85 15.8398 5.16 15.8398 5.36 15.6398L8.16 12.8498C8.46 12.5398 8.24 11.9998 7.79 11.9998H6C6 8.10976 9.2 4.93976 13.1 4.99976C16.81 5.04976 19.94 8.17976 20 11.8998C20.06 15.8098 16.9 18.9998 13 18.9998C11.41 18.9998 9.95 18.4698 8.77 17.5698C8.37 17.2698 7.81 17.2998 7.46 17.6598C7.03 18.0898 7.07 18.7998 7.55 19.1598C9.11542 20.3548 11.0306 21.0013 13 20.9998C18.06 20.9998 22.14 16.8298 22 11.7498C21.87 7.04976 17.95 3.12976 13.26 2.99976ZM15 10.9998V9.99976C15 8.89976 14.1 7.99976 13 7.99976C11.9 7.99976 11 8.89976 11 9.99976V10.9998C10.45 10.9998 10 11.4498 10 11.9998V14.9998C10 15.5498 10.45 15.9998 11 15.9998H15C15.55 15.9998 16 15.5498 16 14.9998V11.9998C16 11.4498 15.55 10.9998 15 10.9998ZM14 10.9998H12V9.99976C12 9.44976 12.45 8.99976 13 8.99976C13.55 8.99976 14 9.44976 14 9.99976V10.9998Z" stroke="white" stroke-width="0.3"/>
</svg>
